<svg xmlns="http://www.w3.org/2000/svg" xmlns:xlink="http://www.w3.org/1999/xlink" width="300" zoomAndPan="magnify" viewBox="0 0 224.87999 149.999998" height="200" preserveAspectRatio="xMidYMid meet" version="1.0"><defs><filter x="0%" y="0%" width="100%" height="100%" id="208cf3c13b"><feColorMatrix values="0 0 0 0 1 0 0 0 0 1 0 0 0 0 1 0 0 0 1 0" color-interpolation-filters="sRGB"/></filter><clipPath id="3285763422"><path d="M 47 15.03125 L 124 15.03125 L 124 123 L 47 123 Z M 47 15.03125 " clip-rule="nonzero"/></clipPath><clipPath id="c3a22311cd"><path d="M 47 15.03125 L 144 15.03125 L 144 124 L 47 124 Z M 47 15.03125 " clip-rule="nonzero"/></clipPath><clipPath id="80bbca32a5"><path d="M 75 116 L 90 116 L 90 134.96875 L 75 134.96875 Z M 75 116 " clip-rule="nonzero"/></clipPath><mask id="e5bafc10f5"><g filter="url(#208cf3c13b)"><rect x="-22.487999" width="269.855988" fill="#000000" y="-15" height="179.999997" fill-opacity="0.5"/></g></mask><clipPath id="25c5d08766"><path d="M 0.078125 0.617188 L 11.832031 0.617188 L 11.832031 5.65625 L 0.078125 5.65625 Z M 0.078125 0.617188 " clip-rule="nonzero"/></clipPath><clipPath id="1830bcac94"><rect x="0" width="12" y="0" height="6"/></clipPath><clipPath id="14b1bfb944"><path d="M 78 127 L 90 127 L 90 134.96875 L 78 134.96875 Z M 78 127 " clip-rule="nonzero"/></clipPath><clipPath id="9b14025978"><path d="M 74 115 L 91 115 L 91 134.96875 L 74 134.96875 Z M 74 115 " clip-rule="nonzero"/></clipPath><mask id="132e3500c4"><g filter="url(#208cf3c13b)"><rect x="-22.487999" width="269.855988" fill="#000000" y="-15" height="179.999997" fill-opacity="0.2"/></g></mask><clipPath id="7f5dee7c95"><path d="M 1 1 L 8 1 L 8 14.84375 L 1 14.84375 Z M 1 1 " clip-rule="nonzero"/></clipPath><clipPath id="5631c6e4f9"><rect x="0" width="9" y="0" height="15"/></clipPath><mask id="ed55cccb02"><g filter="url(#208cf3c13b)"><rect x="-22.487999" width="269.855988" fill="#000000" y="-15" height="179.999997" fill-opacity="0.2"/></g></mask><clipPath id="384757e3b8"><path d="M 1 0.09375 L 7 0.09375 L 7 7.769531 L 1 7.769531 Z M 1 0.09375 " clip-rule="nonzero"/></clipPath><clipPath id="0e9d5d35e2"><rect x="0" width="8" y="0" height="8"/></clipPath><clipPath id="10a0e16dfa"><path d="M 141 120 L 160 120 L 160 134.96875 L 141 134.96875 Z M 141 120 " clip-rule="nonzero"/></clipPath></defs><path fill="#ffa22c" d="M 142.734375 97.40625 L 123.3125 18.042969 C 122.964844 16.625 121.535156 15.757812 120.117188 16.105469 L 52.96875 32.59375 C 49.429688 33.460938 47.242188 37.074219 48.109375 40.621094 L 68.160156 122.550781 C 67.292969 119.003906 69.480469 115.394531 73.019531 114.523438 Z M 142.734375 97.40625 " fill-opacity="1" fill-rule="nonzero"/><path fill="#6b184e" d="M 104.425781 51.359375 C 103.390625 47.652344 104.628906 44.066406 107.1875 43.347656 C 109.746094 42.632812 112.660156 45.054688 113.695312 48.761719 C 114.726562 52.464844 113.492188 56.054688 110.929688 56.769531 C 108.371094 57.488281 105.457031 55.066406 104.425781 51.359375 Z M 104.425781 51.359375 " fill-opacity="1" fill-rule="nonzero"/><path fill="#ffffff" d="M 108.128906 48.867188 C 107.753906 47.523438 108.164062 46.234375 109.046875 45.988281 C 109.925781 45.742188 110.941406 46.628906 111.316406 47.972656 C 111.691406 49.316406 111.28125 50.605469 110.402344 50.851562 C 109.519531 51.097656 108.503906 50.207031 108.128906 48.867188 Z M 108.128906 48.867188 " fill-opacity="1" fill-rule="nonzero"/><path fill="#6b184e" d="M 93.980469 63.914062 C 92.5625 63.914062 91.34375 63.5625 90.335938 62.859375 C 88.117188 61.3125 87.839844 58.652344 87.832031 58.539062 L 89.820312 58.351562 L 89.820312 58.34375 C 89.820312 58.363281 90.035156 60.222656 91.496094 61.226562 C 92.628906 62.007812 94.265625 62.121094 96.359375 61.5625 C 97.953125 61.136719 99.003906 60.402344 99.488281 59.375 C 100.261719 57.730469 99.398438 55.738281 99.390625 55.71875 C 99.160156 55.214844 99.378906 54.621094 99.882812 54.390625 C 100.382812 54.160156 100.976562 54.382812 101.207031 54.886719 C 101.257812 55 102.476562 57.722656 101.296875 60.230469 C 100.550781 61.8125 99.0625 62.914062 96.875 63.496094 C 95.832031 63.773438 94.867188 63.914062 93.980469 63.914062 Z M 93.980469 63.914062 " fill-opacity="1" fill-rule="nonzero"/><path fill="#6b184e" d="M 74.375 59.285156 C 73.339844 55.578125 74.578125 51.992188 77.136719 51.273438 C 79.695312 50.558594 82.609375 52.980469 83.644531 56.6875 C 84.675781 60.390625 83.441406 63.980469 80.878906 64.695312 C 78.320312 65.414062 75.40625 62.992188 74.375 59.285156 Z M 74.375 59.285156 " fill-opacity="1" fill-rule="nonzero"/><path fill="#ffffff" d="M 78.078125 56.792969 C 77.703125 55.449219 78.113281 54.160156 78.996094 53.914062 C 79.875 53.667969 80.890625 54.554688 81.265625 55.898438 C 81.640625 57.242188 81.230469 58.53125 80.351562 58.777344 C 79.46875 59.023438 78.453125 58.136719 78.078125 56.792969 Z M 78.078125 56.792969 " fill-opacity="1" fill-rule="nonzero"/><g clip-path="url(#3285763422)"><path fill="#ffffff" d="M 122.894531 16.863281 L 123.324219 18.613281 L 56.546875 35.011719 C 53.007812 35.878906 50.820312 39.492188 51.6875 43.039062 L 69.523438 115.925781 C 68.042969 117.511719 67.359375 119.792969 67.910156 122.050781 L 47.859375 40.121094 C 46.992188 36.574219 49.179688 32.960938 52.71875 32.09375 L 120.546875 15.4375 C 121.589844 15.183594 122.640625 15.820312 122.894531 16.863281 Z M 122.894531 16.863281 " fill-opacity="0.5" fill-rule="nonzero"/></g><g clip-path="url(#c3a22311cd)"><path fill="#6b184e" d="M 68.160156 123.351562 C 67.800781 123.351562 67.472656 123.109375 67.382812 122.742188 L 47.335938 40.8125 C 46.359375 36.828125 48.800781 32.789062 52.777344 31.8125 L 120.09375 15.285156 C 120.941406 15.078125 121.820312 15.210938 122.566406 15.667969 C 123.3125 16.121094 123.839844 16.835938 124.046875 17.6875 L 143.511719 97.214844 C 143.558594 97.421875 143.527344 97.640625 143.417969 97.820312 C 143.308594 98.003906 143.128906 98.132812 142.921875 98.183594 L 73.210938 115.300781 C 71.707031 115.671875 70.429688 116.609375 69.621094 117.949219 C 68.8125 119.285156 68.570312 120.851562 68.9375 122.359375 C 69.042969 122.789062 68.78125 123.222656 68.351562 123.328125 C 68.289062 123.34375 68.222656 123.351562 68.160156 123.351562 Z M 120.871094 16.792969 C 120.738281 16.792969 120.605469 16.808594 120.472656 16.839844 L 53.160156 33.371094 C 50.039062 34.136719 48.121094 37.304688 48.886719 40.429688 L 67.84375 117.890625 C 67.964844 117.628906 68.101562 117.371094 68.253906 117.121094 C 69.285156 115.414062 70.910156 114.21875 72.828125 113.746094 L 141.765625 96.820312 L 122.492188 18.070312 C 122.308594 17.304688 121.621094 16.792969 120.871094 16.792969 Z M 120.871094 16.792969 " fill-opacity="1" fill-rule="nonzero"/></g><path fill="#f9a528" d="M 145.992188 110.734375 L 142.734375 97.40625 L 73.019531 114.523438 C 72.070312 114.757812 71.222656 115.1875 70.5 115.757812 C 68.527344 117.324219 67.523438 119.953125 68.160156 122.550781 L 68.78125 125.085938 C 69.648438 128.632812 73.253906 130.824219 76.796875 129.953125 L 144.40625 113.351562 C 145.566406 113.070312 146.277344 111.894531 145.992188 110.734375 Z M 145.992188 110.734375 " fill-opacity="1" fill-rule="nonzero"/><path fill="#6b184e" d="M 145.992188 110.734375 L 142.734375 97.40625 L 73.019531 114.523438 C 72.070312 114.757812 71.222656 115.1875 70.5 115.757812 C 68.527344 117.324219 67.523438 119.953125 68.160156 122.550781 L 68.78125 125.085938 C 69.648438 128.632812 73.253906 130.824219 76.796875 129.953125 L 144.40625 113.351562 C 145.566406 113.070312 146.277344 111.894531 145.992188 110.734375 Z M 145.992188 110.734375 " fill-opacity="0.3" fill-rule="nonzero"/><path fill="#6b184e" d="M 75.21875 130.949219 C 71.878906 130.949219 68.835938 128.671875 68.003906 125.277344 L 67.382812 122.742188 C 66.695312 119.925781 67.722656 116.9375 70.003906 115.128906 C 70.839844 114.464844 71.792969 114 72.828125 113.746094 L 142.542969 96.628906 C 142.75 96.578125 142.964844 96.609375 143.148438 96.722656 C 143.328125 96.832031 143.460938 97.007812 143.511719 97.214844 L 146.769531 110.542969 C 146.960938 111.3125 146.835938 112.109375 146.425781 112.789062 C 146.015625 113.464844 145.367188 113.941406 144.597656 114.132812 L 76.988281 130.734375 C 76.394531 130.878906 75.800781 130.949219 75.21875 130.949219 Z M 142.148438 98.375 L 73.210938 115.300781 C 72.398438 115.5 71.652344 115.867188 70.996094 116.386719 C 69.203125 117.804688 68.398438 120.152344 68.9375 122.359375 L 69.558594 124.894531 C 70.324219 128.023438 73.484375 129.941406 76.605469 129.175781 L 144.21875 112.574219 C 144.570312 112.488281 144.871094 112.269531 145.058594 111.957031 C 145.25 111.644531 145.304688 111.277344 145.21875 110.921875 Z M 142.148438 98.375 " fill-opacity="1" fill-rule="nonzero"/><path fill="#ffffff" d="M 138.824219 106.828125 L 136.871094 98.84375 L 73.019531 114.523438 C 72.070312 114.757812 71.222656 115.1875 70.5 115.757812 L 71.976562 121.78125 C 72.445312 123.699219 74.390625 124.882812 76.304688 124.410156 L 137.238281 109.449219 C 138.398438 109.164062 139.109375 107.992188 138.824219 106.828125 Z M 138.824219 106.828125 " fill-opacity="1" fill-rule="nonzero"/><path fill="#6b184e" d="M 75.449219 125.316406 C 74.660156 125.316406 73.878906 125.097656 73.183594 124.675781 C 72.179688 124.066406 71.476562 123.109375 71.199219 121.972656 L 69.722656 115.949219 C 69.648438 115.644531 69.757812 115.324219 70.003906 115.128906 C 70.839844 114.464844 71.792969 114 72.828125 113.746094 L 136.683594 98.066406 C 137.109375 97.960938 137.542969 98.222656 137.648438 98.652344 L 139.601562 106.636719 C 139.992188 108.226562 139.015625 109.835938 137.429688 110.226562 L 76.492188 125.191406 C 76.148438 125.273438 75.796875 125.316406 75.449219 125.316406 Z M 71.40625 116.089844 L 72.75 121.59375 C 72.925781 122.3125 73.375 122.917969 74.011719 123.304688 C 74.648438 123.691406 75.394531 123.808594 76.113281 123.632812 L 137.046875 108.671875 C 137.777344 108.492188 138.226562 107.75 138.046875 107.019531 L 136.285156 99.8125 L 73.210938 115.300781 C 72.5625 115.460938 71.957031 115.726562 71.40625 116.089844 Z M 71.40625 116.089844 " fill-opacity="1" fill-rule="nonzero"/><path fill="#ff3b3c" d="M 97.191406 85.574219 L 87.914062 94.136719 C 86.941406 95.035156 85.453125 95.070312 84.445312 94.210938 C 84.164062 93.96875 83.875 93.679688 83.59375 93.328125 C 83.214844 92.863281 82.851562 92.292969 82.535156 91.601562 C 80.789062 87.757812 82.695312 86.308594 79.601562 81.949219 C 79.089844 81.226562 78.707031 80.53125 78.433594 79.875 C 78.433594 79.875 78.429688 79.875 78.429688 79.871094 C 77.988281 78.828125 77.808594 77.882812 77.773438 77.058594 C 77.695312 75.367188 79.242188 74.058594 80.90625 74.390625 L 93.710938 76.96875 Z M 97.191406 85.574219 " fill-opacity="1" fill-rule="nonzero"/><path fill="#6b184e" d="M 81.886719 89.683594 C 81.910156 89.78125 81.933594 89.878906 81.957031 89.976562 C 81.933594 89.878906 81.910156 89.78125 81.886719 89.683594 Z M 81.886719 89.683594 " fill-opacity="0.35" fill-rule="nonzero"/><path fill="#6b184e" d="M 81.957031 89.980469 C 82.035156 90.277344 82.132812 90.589844 82.253906 90.917969 C 82.132812 90.589844 82.035156 90.277344 81.957031 89.980469 Z M 81.957031 89.980469 " fill-opacity="0.35" fill-rule="nonzero"/><path fill="#ff3b3c" d="M 100.632812 75.269531 L 110.800781 67.050781 C 112.117188 65.984375 114.09375 66.425781 114.808594 67.964844 C 115.375 69.183594 115.757812 70.878906 115.445312 73.148438 C 114.714844 78.445312 117.074219 78.847656 117.300781 83.066406 C 117.371094 84.394531 117.136719 85.457031 116.808594 86.261719 C 116.316406 87.492188 114.980469 88.148438 113.703125 87.804688 L 101.523438 84.511719 Z M 100.632812 75.269531 " fill-opacity="1" fill-rule="nonzero"/><path fill="#6b184e" d="M 97.191406 85.574219 L 87.914062 94.136719 C 86.941406 95.035156 85.453125 95.070312 84.445312 94.210938 C 84.164062 93.96875 83.875 93.679688 83.59375 93.328125 C 83.5 93.214844 83.40625 93.089844 83.3125 92.960938 C 83.269531 92.898438 83.226562 92.835938 83.183594 92.773438 C 83.085938 92.625 82.988281 92.46875 82.894531 92.304688 C 82.867188 92.253906 82.835938 92.199219 82.808594 92.144531 C 82.710938 91.972656 82.621094 91.792969 82.535156 91.601562 C 82.429688 91.363281 82.335938 91.136719 82.253906 90.917969 C 82.089844 90.480469 81.972656 90.070312 81.890625 89.683594 C 81.875 89.617188 81.859375 89.554688 81.847656 89.492188 C 81.773438 89.109375 81.726562 88.746094 81.6875 88.390625 C 81.503906 86.484375 81.671875 84.871094 79.601562 81.949219 C 79.089844 81.226562 78.707031 80.53125 78.433594 79.875 C 79.222656 80.988281 81.058594 82.660156 85.054688 82.96875 C 91.046875 83.433594 88.191406 84.078125 88.191406 84.078125 C 88.191406 84.078125 85.121094 85.277344 83.402344 87.335938 C 82.410156 88.519531 82.558594 90.304688 83.726562 91.3125 C 83.730469 91.316406 83.734375 91.320312 83.738281 91.324219 C 84.746094 92.183594 86.234375 92.148438 87.207031 91.25 L 96.148438 83 Z M 97.191406 85.574219 " fill-opacity="0.35" fill-rule="nonzero"/><path fill="#6b184e" d="M 101.507812 84.386719 L 113.617188 87.929688 C 114.882812 88.300781 116.234375 87.667969 116.753906 86.449219 C 116.898438 86.109375 117.03125 85.71875 117.128906 85.28125 C 117.160156 85.136719 117.191406 84.984375 117.214844 84.828125 C 117.226562 84.753906 117.238281 84.675781 117.246094 84.597656 C 117.269531 84.421875 117.289062 84.242188 117.296875 84.054688 C 117.300781 83.992188 117.304688 83.933594 117.304688 83.871094 C 117.316406 83.675781 117.316406 83.472656 117.308594 83.261719 C 117.296875 83.003906 117.28125 82.761719 117.257812 82.527344 C 117.210938 82.058594 117.132812 81.644531 117.039062 81.257812 C 117.023438 81.191406 117.003906 81.128906 116.988281 81.066406 C 116.886719 80.6875 116.769531 80.34375 116.644531 80.011719 L 116.644531 80.007812 C 115.964844 78.21875 115.09375 76.851562 115.65625 73.3125 C 115.792969 72.4375 115.828125 71.644531 115.78125 70.933594 C 115.570312 72.28125 114.664062 74.597656 111.222656 76.652344 C 106.0625 79.738281 108.902344 79.042969 108.902344 79.042969 C 108.902344 79.042969 112.1875 78.746094 114.640625 79.828125 C 116.054688 80.449219 116.714844 82.109375 116.117188 83.535156 C 116.113281 83.539062 116.109375 83.546875 116.109375 83.550781 C 115.585938 84.769531 114.238281 85.398438 112.96875 85.027344 L 101.296875 81.617188 Z M 101.507812 84.386719 " fill-opacity="0.35" fill-rule="nonzero"/><path fill="#6b184e" d="M 83.59375 93.328125 C 83.5 93.210938 83.40625 93.089844 83.3125 92.960938 C 83.402344 93.089844 83.5 93.214844 83.59375 93.328125 Z M 83.59375 93.328125 " fill-opacity="0.35" fill-rule="nonzero"/><path fill="#ffffff" d="M 94.171875 78.847656 L 81.363281 76.269531 C 79.703125 75.933594 78.15625 77.242188 78.230469 78.9375 C 78.238281 79.113281 78.253906 79.296875 78.277344 79.484375 C 77.949219 78.59375 77.804688 77.777344 77.773438 77.058594 C 77.695312 75.367188 79.246094 74.054688 80.90625 74.390625 L 93.714844 76.96875 Z M 94.171875 78.847656 " fill-opacity="0.5" fill-rule="nonzero"/><path fill="#ffffff" d="M 115.484375 70.351562 C 115.414062 70.171875 115.34375 70.003906 115.269531 69.84375 C 114.554688 68.304688 112.578125 67.863281 111.257812 68.929688 L 101.09375 77.148438 L 100.636719 75.269531 L 110.800781 67.050781 C 112.117188 65.984375 114.09375 66.429688 114.808594 67.964844 C 115.113281 68.617188 115.363281 69.40625 115.484375 70.351562 Z M 115.484375 70.351562 " fill-opacity="0.5" fill-rule="nonzero"/><path fill="#6b184e" d="M 86.132812 95.632812 C 85.347656 95.632812 84.5625 95.363281 83.925781 94.820312 C 83.050781 94.066406 82.335938 93.097656 81.808594 91.933594 C 81.015625 90.183594 80.914062 88.855469 80.828125 87.683594 C 80.714844 86.113281 80.613281 84.757812 78.949219 82.414062 C 77.71875 80.679688 77.054688 78.890625 76.972656 77.097656 C 76.925781 76.046875 77.359375 75.050781 78.15625 74.367188 C 78.960938 73.671875 80.023438 73.394531 81.0625 73.605469 L 93.871094 76.183594 C 94.304688 76.269531 94.582031 76.695312 94.496094 77.125 C 94.410156 77.558594 93.988281 77.839844 93.554688 77.753906 L 80.746094 75.175781 C 80.191406 75.066406 79.628906 75.210938 79.195312 75.582031 C 78.773438 75.945312 78.546875 76.472656 78.570312 77.023438 C 78.636719 78.507812 79.203125 80.007812 80.253906 81.488281 C 82.175781 84.195312 82.300781 85.910156 82.421875 87.566406 C 82.507812 88.707031 82.585938 89.78125 83.261719 91.269531 C 83.695312 92.21875 84.265625 93.003906 84.964844 93.601562 C 85.660156 94.195312 86.695312 94.171875 87.371094 93.546875 L 96.648438 84.984375 C 96.972656 84.6875 97.476562 84.707031 97.777344 85.03125 C 98.078125 85.359375 98.054688 85.863281 97.730469 86.164062 L 88.453125 94.726562 C 87.800781 95.328125 86.96875 95.632812 86.132812 95.632812 Z M 86.132812 95.632812 " fill-opacity="1" fill-rule="nonzero"/><path fill="#6b184e" d="M 114.390625 88.695312 C 114.09375 88.695312 113.792969 88.65625 113.496094 88.578125 L 101.316406 85.285156 C 100.890625 85.167969 100.636719 84.730469 100.753906 84.300781 C 100.867188 83.875 101.308594 83.621094 101.734375 83.738281 L 113.910156 87.03125 C 114.800781 87.269531 115.726562 86.8125 116.070312 85.964844 C 116.414062 85.109375 116.558594 84.148438 116.503906 83.109375 C 116.414062 81.476562 115.988281 80.484375 115.535156 79.433594 C 114.878906 77.90625 114.199219 76.328125 114.652344 73.039062 C 114.902344 71.242188 114.710938 69.648438 114.085938 68.304688 C 113.851562 67.800781 113.40625 67.441406 112.863281 67.3125 C 112.3125 67.1875 111.742188 67.316406 111.300781 67.671875 L 101.136719 75.890625 C 100.792969 76.167969 100.289062 76.113281 100.011719 75.769531 C 99.734375 75.425781 99.789062 74.921875 100.132812 74.644531 L 110.296875 66.425781 C 111.125 65.757812 112.191406 65.511719 113.226562 65.753906 C 114.25 65.992188 115.09375 66.675781 115.535156 67.625 C 116.292969 69.253906 116.53125 71.152344 116.238281 73.257812 C 115.847656 76.105469 116.382812 77.355469 117.003906 78.800781 C 117.46875 79.878906 117.996094 81.105469 118.097656 83.019531 C 118.167969 84.296875 117.984375 85.488281 117.554688 86.5625 C 117.023438 87.878906 115.753906 88.695312 114.390625 88.695312 Z M 114.390625 88.695312 " fill-opacity="1" fill-rule="nonzero"/><g clip-path="url(#80bbca32a5)"><path fill="#ff3b3c" d="M 86.203125 116.632812 L 89.5625 130.355469 C 89.835938 131.472656 88.746094 132.4375 87.675781 132.03125 L 83.847656 130.582031 L 81.125 133.640625 C 80.359375 134.496094 78.949219 134.144531 78.675781 133.027344 L 75.320312 119.304688 Z M 86.203125 116.632812 " fill-opacity="1" fill-rule="nonzero"/></g><g mask="url(#e5bafc10f5)"><g transform="matrix(1, 0, 0, 1, 75, 116)"><g clip-path="url(#1830bcac94)"><g clip-path="url(#25c5d08766)"><path fill="#ffffff" d="M 0.320312 3.304688 L 11.207031 0.632812 L 11.710938 2.703125 L 0.828125 5.375 Z M 0.320312 3.304688 " fill-opacity="1" fill-rule="nonzero"/></g></g></g></g><g clip-path="url(#14b1bfb944)"><path fill="#6b184e" d="M 89.382812 129.625 L 89.5625 130.355469 C 89.835938 131.472656 88.746094 132.4375 87.675781 132.03125 L 83.847656 130.582031 L 81.125 133.640625 C 80.359375 134.496094 78.949219 134.144531 78.675781 133.027344 C 78.566406 132.570312 78.683594 132.089844 78.996094 131.738281 L 83.023438 127.21875 Z M 89.382812 129.625 " fill-opacity="0.35" fill-rule="nonzero"/></g><g clip-path="url(#9b14025978)"><path fill="#6b184e" d="M 80.0625 134.917969 C 79.882812 134.917969 79.703125 134.894531 79.523438 134.851562 C 78.71875 134.652344 78.097656 134.027344 77.898438 133.21875 L 74.542969 119.496094 C 74.492188 119.292969 74.523438 119.074219 74.632812 118.890625 C 74.746094 118.710938 74.921875 118.578125 75.128906 118.527344 L 86.015625 115.855469 C 86.441406 115.75 86.875 116.011719 86.980469 116.441406 L 90.339844 130.164062 C 90.535156 130.972656 90.273438 131.8125 89.652344 132.363281 C 89.035156 132.914062 88.167969 133.074219 87.390625 132.78125 L 84.078125 131.527344 L 81.71875 134.171875 C 81.292969 134.652344 80.6875 134.917969 80.0625 134.917969 Z M 76.285156 119.894531 L 79.453125 132.839844 C 79.535156 133.171875 79.800781 133.269531 79.910156 133.296875 C 80.019531 133.324219 80.300781 133.359375 80.527344 133.105469 L 83.25 130.046875 C 83.472656 129.800781 83.820312 129.714844 84.128906 129.832031 L 87.957031 131.28125 C 88.277344 131.402344 88.507812 131.238281 88.59375 131.164062 C 88.679688 131.089844 88.867188 130.878906 88.785156 130.546875 L 85.617188 117.601562 Z M 76.285156 119.894531 " fill-opacity="1" fill-rule="nonzero"/></g><g mask="url(#132e3500c4)"><g transform="matrix(1, 0, 0, 1, 57, 55)"><g clip-path="url(#5631c6e4f9)"><g clip-path="url(#7f5dee7c95)"><path fill="#ffffff" d="M 7.136719 7.042969 C 7.238281 7.460938 7.324219 7.878906 7.394531 8.296875 C 7.460938 8.714844 7.515625 9.125 7.546875 9.527344 C 7.582031 9.929688 7.59375 10.316406 7.589844 10.683594 C 7.585938 11.054688 7.5625 11.402344 7.523438 11.726562 C 7.480469 12.050781 7.421875 12.34375 7.34375 12.609375 C 7.269531 12.875 7.175781 13.105469 7.066406 13.300781 C 6.957031 13.5 6.835938 13.65625 6.695312 13.777344 C 6.558594 13.898438 6.410156 13.976562 6.25 14.015625 C 6.089844 14.054688 5.917969 14.054688 5.742188 14.011719 C 5.5625 13.96875 5.382812 13.886719 5.195312 13.761719 C 5.007812 13.636719 4.816406 13.476562 4.625 13.277344 C 4.4375 13.078125 4.246094 12.84375 4.0625 12.574219 C 3.875 12.308594 3.695312 12.011719 3.519531 11.683594 C 3.347656 11.359375 3.179688 11.007812 3.023438 10.636719 C 2.871094 10.265625 2.726562 9.878906 2.59375 9.476562 C 2.460938 9.074219 2.34375 8.664062 2.242188 8.246094 C 2.140625 7.828125 2.054688 7.410156 1.984375 6.992188 C 1.914062 6.570312 1.863281 6.164062 1.832031 5.761719 C 1.796875 5.359375 1.785156 4.972656 1.789062 4.601562 C 1.792969 4.234375 1.816406 3.886719 1.855469 3.5625 C 1.898438 3.238281 1.957031 2.945312 2.03125 2.679688 C 2.109375 2.414062 2.203125 2.183594 2.3125 1.988281 C 2.421875 1.789062 2.542969 1.632812 2.683594 1.511719 C 2.820312 1.390625 2.96875 1.3125 3.128906 1.269531 C 3.289062 1.230469 3.460938 1.234375 3.636719 1.277344 C 3.816406 1.320312 3.996094 1.402344 4.183594 1.527344 C 4.371094 1.648438 4.5625 1.8125 4.753906 2.011719 C 4.941406 2.210938 5.128906 2.445312 5.316406 2.714844 C 5.503906 2.980469 5.683594 3.277344 5.859375 3.605469 C 6.03125 3.929688 6.195312 4.277344 6.351562 4.648438 C 6.507812 5.023438 6.652344 5.410156 6.785156 5.8125 C 6.917969 6.214844 7.035156 6.625 7.136719 7.042969 Z M 7.136719 7.042969 " fill-opacity="1" fill-rule="nonzero"/></g></g></g></g><g mask="url(#ed55cccb02)"><g transform="matrix(1, 0, 0, 1, 54, 46)"><g clip-path="url(#0e9d5d35e2)"><g clip-path="url(#384757e3b8)"><path fill="#ffffff" d="M 6.769531 3.339844 C 6.867188 3.746094 6.898438 4.148438 6.867188 4.550781 C 6.835938 4.953125 6.738281 5.328125 6.578125 5.667969 C 6.417969 6.011719 6.207031 6.296875 5.945312 6.523438 C 5.683594 6.75 5.390625 6.90625 5.066406 6.984375 C 4.742188 7.0625 4.410156 7.0625 4.074219 6.984375 C 3.734375 6.902344 3.417969 6.746094 3.117188 6.519531 C 2.816406 6.289062 2.5625 6.003906 2.34375 5.660156 C 2.128906 5.320312 1.972656 4.945312 1.875 4.542969 C 1.773438 4.140625 1.742188 3.738281 1.773438 3.332031 C 1.808594 2.929688 1.90625 2.558594 2.0625 2.214844 C 2.222656 1.875 2.433594 1.589844 2.695312 1.363281 C 2.957031 1.132812 3.253906 0.980469 3.578125 0.898438 C 3.902344 0.820312 4.230469 0.820312 4.570312 0.902344 C 4.90625 0.980469 5.226562 1.136719 5.523438 1.367188 C 5.824219 1.59375 6.082031 1.878906 6.296875 2.222656 C 6.511719 2.566406 6.667969 2.9375 6.769531 3.339844 Z M 6.769531 3.339844 " fill-opacity="1" fill-rule="nonzero"/></g></g></g></g><path fill="#ffffff" d="M 100.488281 84.953125 L 98.28125 85.492188 C 96.765625 85.867188 95.191406 85.132812 94.496094 83.734375 L 93.0625 80.839844 C 92.109375 78.921875 93.179688 76.617188 95.257812 76.105469 L 98.835938 75.226562 C 100.914062 74.714844 102.925781 76.265625 102.96875 78.410156 L 103.03125 81.636719 C 103.0625 83.203125 102.007812 84.578125 100.488281 84.953125 Z M 100.488281 84.953125 " fill-opacity="1" fill-rule="nonzero"/><path fill="#ffffff" d="M 102.96875 78.410156 L 102.972656 78.570312 C 102.269531 77.304688 100.78125 76.570312 99.257812 76.941406 L 95.679688 77.820312 C 94.15625 78.195312 93.171875 79.539062 93.132812 80.984375 L 93.0625 80.84375 C 92.113281 78.925781 93.179688 76.617188 95.257812 76.105469 L 98.839844 75.226562 C 100.914062 74.71875 102.929688 76.269531 102.96875 78.410156 Z M 102.96875 78.410156 " fill-opacity="0.3" fill-rule="nonzero"/><path fill="#6b184e" d="M 102.96875 78.410156 L 103.03125 81.636719 C 103.0625 83.203125 102.007812 84.578125 100.488281 84.953125 L 98.28125 85.492188 C 96.765625 85.867188 95.191406 85.132812 94.496094 83.734375 L 93.0625 80.84375 C 92.777344 80.265625 92.675781 79.660156 92.726562 79.070312 L 93.972656 81.582031 C 94.667969 82.984375 96.238281 83.714844 97.753906 83.34375 L 99.964844 82.800781 C 101.480469 82.429688 102.539062 81.050781 102.507812 79.488281 L 102.449219 76.683594 C 102.769531 77.179688 102.957031 77.765625 102.96875 78.410156 Z M 102.96875 78.410156 " fill-opacity="0.35" fill-rule="nonzero"/><path fill="#6b184e" d="M 97.488281 86.390625 C 96.890625 86.390625 96.292969 86.261719 95.746094 86.003906 C 94.894531 85.609375 94.199219 84.929688 93.78125 84.089844 L 92.347656 81.199219 C 91.785156 80.066406 91.769531 78.753906 92.300781 77.609375 C 92.832031 76.460938 93.839844 75.628906 95.066406 75.328125 L 98.648438 74.449219 C 99.875 74.148438 101.152344 74.417969 102.152344 75.1875 C 103.15625 75.960938 103.746094 77.128906 103.769531 78.394531 L 103.832031 81.621094 C 103.851562 82.558594 103.546875 83.484375 102.976562 84.230469 C 102.40625 84.972656 101.589844 85.507812 100.679688 85.730469 L 98.472656 86.273438 C 98.148438 86.351562 97.820312 86.390625 97.488281 86.390625 Z M 100.488281 84.953125 Z M 99.636719 75.929688 C 99.433594 75.929688 99.230469 75.957031 99.027344 76.003906 L 95.449219 76.882812 C 94.695312 77.070312 94.078125 77.578125 93.75 78.28125 C 93.425781 78.988281 93.433594 79.789062 93.78125 80.484375 L 95.214844 83.378906 C 95.746094 84.449219 96.929688 85 98.089844 84.714844 L 100.300781 84.171875 C 101.460938 83.886719 102.257812 82.851562 102.234375 81.652344 L 102.171875 78.425781 C 102.15625 77.648438 101.792969 76.933594 101.179688 76.457031 C 100.730469 76.113281 100.1875 75.929688 99.636719 75.929688 Z M 99.636719 75.929688 " fill-opacity="1" fill-rule="nonzero"/><path fill="#6b184e" d="M 79.15625 115.484375 C 80.144531 115.199219 81.136719 114.929688 82.132812 114.664062 L 82.878906 114.464844 L 83.625 114.269531 C 84.121094 114.136719 84.621094 114.007812 85.117188 113.882812 C 87.109375 113.367188 89.109375 112.882812 91.109375 112.394531 C 93.109375 111.910156 95.109375 111.433594 97.113281 110.964844 C 99.117188 110.5 101.121094 110.039062 103.132812 109.597656 C 103.316406 109.558594 103.5 109.675781 103.539062 109.863281 C 103.578125 110.042969 103.46875 110.222656 103.296875 110.269531 C 101.308594 110.8125 99.320312 111.332031 97.328125 111.847656 C 95.335938 112.359375 93.339844 112.863281 91.34375 113.359375 C 89.347656 113.855469 87.351562 114.351562 85.347656 114.816406 C 84.847656 114.9375 84.347656 115.050781 83.84375 115.167969 L 83.09375 115.339844 L 82.339844 115.507812 C 81.335938 115.734375 80.332031 115.953125 79.320312 116.15625 C 79.132812 116.195312 78.953125 116.074219 78.914062 115.886719 C 78.878906 115.710938 78.988281 115.535156 79.15625 115.484375 Z M 79.15625 115.484375 " fill-opacity="1" fill-rule="nonzero"/><path fill="#6b184e" d="M 108.894531 108.183594 C 109.609375 107.964844 110.332031 107.761719 111.054688 107.5625 L 111.59375 107.410156 L 112.136719 107.265625 C 112.5 107.167969 112.863281 107.070312 113.226562 106.980469 C 114.675781 106.597656 116.132812 106.246094 117.589844 105.894531 C 119.042969 105.542969 120.503906 105.199219 121.964844 104.863281 C 123.425781 104.53125 124.886719 104.203125 126.355469 103.894531 C 126.542969 103.859375 126.722656 103.976562 126.761719 104.164062 C 126.800781 104.34375 126.691406 104.515625 126.519531 104.566406 C 125.078125 104.976562 123.628906 105.363281 122.179688 105.742188 C 120.730469 106.121094 119.277344 106.492188 117.824219 106.855469 C 116.371094 107.21875 114.914062 107.582031 113.453125 107.914062 C 113.089844 108 112.726562 108.082031 112.359375 108.164062 L 111.808594 108.289062 L 111.261719 108.40625 C 110.527344 108.5625 109.792969 108.714844 109.058594 108.855469 C 108.871094 108.890625 108.6875 108.765625 108.65625 108.578125 C 108.621094 108.402344 108.726562 108.234375 108.894531 108.183594 Z M 108.894531 108.183594 " fill-opacity="1" fill-rule="nonzero"/><path fill="#6b184e" d="M 90.445312 115.402344 C 91.316406 115.144531 92.195312 114.902344 93.070312 114.664062 L 93.730469 114.484375 L 94.390625 114.3125 C 94.828125 114.195312 95.269531 114.078125 95.710938 113.96875 C 97.46875 113.511719 99.234375 113.082031 101.003906 112.652344 C 102.769531 112.226562 104.539062 111.804688 106.3125 111.394531 C 108.082031 110.984375 109.855469 110.578125 111.632812 110.199219 C 111.820312 110.160156 112.003906 110.277344 112.042969 110.464844 C 112.082031 110.644531 111.972656 110.820312 111.796875 110.867188 C 110.046875 111.355469 108.285156 111.816406 106.527344 112.273438 C 104.765625 112.730469 103.003906 113.175781 101.238281 113.617188 C 99.476562 114.054688 97.710938 114.492188 95.9375 114.902344 C 95.496094 115.007812 95.054688 115.109375 94.609375 115.210938 L 93.945312 115.363281 L 93.28125 115.507812 C 92.390625 115.703125 91.503906 115.894531 90.609375 116.070312 C 90.421875 116.109375 90.242188 115.984375 90.207031 115.800781 C 90.167969 115.625 90.277344 115.453125 90.445312 115.402344 Z M 90.445312 115.402344 " fill-opacity="1" fill-rule="nonzero"/><path fill="#6b184e" d="M 116.90625 108.902344 C 117.625 108.683594 118.34375 108.480469 119.066406 108.28125 L 119.609375 108.128906 L 120.152344 107.984375 C 120.515625 107.886719 120.875 107.792969 121.238281 107.699219 C 122.691406 107.316406 124.144531 106.964844 125.601562 106.613281 C 127.058594 106.261719 128.519531 105.917969 129.976562 105.582031 C 131.4375 105.25 132.902344 104.921875 134.371094 104.617188 C 134.554688 104.578125 134.738281 104.695312 134.777344 104.882812 C 134.8125 105.0625 134.707031 105.238281 134.535156 105.285156 C 133.089844 105.695312 131.644531 106.082031 130.195312 106.464844 C 128.742188 106.84375 127.292969 107.214844 125.839844 107.574219 C 124.382812 107.9375 122.929688 108.300781 121.46875 108.636719 C 121.105469 108.722656 120.738281 108.800781 120.375 108.882812 L 119.824219 109.007812 L 119.277344 109.125 C 118.542969 109.285156 117.808594 109.433594 117.070312 109.574219 C 116.882812 109.609375 116.703125 109.484375 116.667969 109.296875 C 116.636719 109.121094 116.742188 108.953125 116.90625 108.902344 Z M 116.90625 108.902344 " fill-opacity="1" fill-rule="nonzero"/><path fill="#6b184e" d="M 111.082031 113.019531 C 111.609375 112.847656 112.140625 112.691406 112.671875 112.539062 L 113.070312 112.421875 L 113.472656 112.3125 C 113.738281 112.238281 114.003906 112.164062 114.273438 112.097656 C 115.339844 111.808594 116.417969 111.550781 117.492188 111.292969 C 118.566406 111.035156 119.644531 110.785156 120.722656 110.542969 C 121.804688 110.304688 122.882812 110.066406 123.972656 109.855469 C 124.160156 109.820312 124.339844 109.941406 124.375 110.128906 C 124.410156 110.304688 124.300781 110.476562 124.136719 110.527344 C 123.074219 110.84375 122.007812 111.132812 120.9375 111.421875 C 119.871094 111.707031 118.800781 111.984375 117.726562 112.253906 C 116.652344 112.523438 115.582031 112.792969 114.5 113.03125 C 114.230469 113.09375 113.960938 113.152344 113.691406 113.210938 L 113.285156 113.300781 L 112.878906 113.382812 C 112.335938 113.496094 111.792969 113.601562 111.246094 113.691406 C 111.058594 113.722656 110.878906 113.59375 110.847656 113.40625 C 110.820312 113.234375 110.921875 113.074219 111.082031 113.019531 Z M 111.082031 113.019531 " fill-opacity="1" fill-rule="nonzero"/><path fill="#6b184e" d="M 92.382812 117.613281 C 92.910156 117.441406 93.441406 117.28125 93.972656 117.128906 L 94.371094 117.015625 L 94.773438 116.90625 C 95.039062 116.832031 95.304688 116.757812 95.574219 116.6875 C 96.644531 116.402344 97.71875 116.144531 98.792969 115.882812 C 99.867188 115.625 100.945312 115.375 102.023438 115.132812 C 103.105469 114.894531 104.1875 114.660156 105.273438 114.449219 C 105.460938 114.410156 105.640625 114.535156 105.675781 114.722656 C 105.710938 114.894531 105.605469 115.066406 105.4375 115.117188 C 104.375 115.433594 103.308594 115.726562 102.242188 116.015625 C 101.171875 116.300781 100.101562 116.578125 99.027344 116.847656 C 97.957031 117.113281 96.882812 117.382812 95.800781 117.625 C 95.53125 117.6875 95.261719 117.746094 94.992188 117.804688 L 94.585938 117.890625 L 94.179688 117.972656 C 93.636719 118.085938 93.09375 118.191406 92.546875 118.28125 C 92.359375 118.3125 92.183594 118.1875 92.148438 117.996094 C 92.121094 117.828125 92.226562 117.664062 92.382812 117.613281 Z M 92.382812 117.613281 " fill-opacity="1" fill-rule="nonzero"/><path fill="#6b184e" d="M 132.242188 54.53125 C 132.125 54.050781 132.050781 53.789062 132.050781 53.789062 Z M 132.242188 54.53125 " fill-opacity="0.35" fill-rule="nonzero"/><path fill="#6b184e" d="M 142.734375 95.820312 L 132.242188 54.53125 C 133.441406 59.523438 143.046875 92.839844 117.554688 98.953125 L 71.949219 110.152344 C 68.410156 111.019531 66.222656 114.632812 67.089844 118.179688 L 68.160156 122.550781 C 67.292969 119.003906 69.480469 115.394531 73.019531 114.523438 L 142.730469 97.40625 L 142.363281 95.894531 Z M 142.734375 95.820312 " fill-opacity="0.35" fill-rule="nonzero"/><path fill="#ffca28" d="M 132.136719 101.113281 C 132.851562 81.667969 134.949219 62.390625 138.4375 43.246094 C 151.066406 42.605469 162.949219 45.070312 174.550781 50.019531 C 171.402344 67.316406 169.507812 84.726562 168.859375 102.300781 Z M 132.136719 101.113281 " fill-opacity="1" fill-rule="nonzero"/><path fill="#6b184e" d="M 174.550781 50.019531 C 171.402344 67.316406 169.507812 84.726562 168.859375 102.300781 C 167.640625 102.261719 167.03125 102.242188 165.808594 102.203125 C 166.34375 87.78125 167.695312 73.480469 169.875 59.214844 C 170.777344 53.464844 167.398438 47.496094 161.761719 45.769531 C 159.675781 45.132812 157.554688 44.582031 155.421875 44.125 C 162.0625 45.425781 168.316406 47.371094 174.550781 50.019531 Z M 174.550781 50.019531 " fill-opacity="0.3" fill-rule="nonzero"/><path fill="#ffffff" d="M 174.550781 50.019531 C 174.453125 50.542969 174.40625 50.804688 174.308594 51.332031 C 166.820312 48.464844 159.324219 46.503906 151.441406 45.742188 C 144.945312 45.117188 139.464844 50.558594 138.519531 56.835938 C 136.367188 71.554688 135.023438 86.324219 134.480469 101.1875 C 133.542969 101.160156 133.074219 101.144531 132.136719 101.113281 C 132.851562 81.664062 134.949219 62.390625 138.4375 43.246094 C 151.066406 42.605469 162.949219 45.070312 174.550781 50.019531 Z M 174.550781 50.019531 " fill-opacity="0.3" fill-rule="nonzero"/><path fill="#6b184e" d="M 168.859375 103.101562 C 168.847656 103.101562 168.839844 103.101562 168.828125 103.101562 C 168.386719 103.085938 168.042969 102.714844 168.058594 102.273438 C 168.699219 84.964844 170.578125 67.554688 173.648438 50.507812 C 162.042969 45.644531 150.730469 43.519531 139.113281 44.019531 C 135.714844 62.828125 133.636719 82.046875 132.9375 101.144531 C 132.921875 101.585938 132.550781 101.929688 132.109375 101.914062 C 131.667969 101.898438 131.320312 101.527344 131.339844 101.085938 C 131.695312 91.386719 132.40625 81.597656 133.453125 71.980469 C 134.5 62.367188 135.914062 52.652344 137.652344 43.105469 L 137.765625 42.480469 L 138.398438 42.449219 C 144.625 42.132812 150.890625 42.570312 157.027344 43.75 C 162.910156 44.882812 168.910156 46.742188 174.863281 49.28125 L 175.453125 49.535156 L 175.335938 50.164062 C 172.210938 67.335938 170.300781 84.886719 169.65625 102.332031 C 169.640625 102.761719 169.285156 103.101562 168.859375 103.101562 Z M 168.859375 103.101562 " fill-opacity="1" fill-rule="nonzero"/><path fill="#b4bcc1" d="M 175.601562 44.636719 C 175.164062 46.785156 174.953125 47.863281 174.550781 50.019531 C 162.949219 45.070312 151.0625 42.605469 138.4375 43.246094 C 138.882812 40.863281 139.117188 39.671875 139.601562 37.292969 C 152.285156 36.628906 164.113281 39.296875 175.601562 44.636719 Z M 175.601562 44.636719 " fill-opacity="1" fill-rule="nonzero"/><path fill="#ffffff" d="M 142.101562 37.542969 C 145.363281 37.371094 148.570312 37.421875 151.730469 37.683594 C 147.765625 37.214844 143.730469 37.074219 139.601562 37.292969 C 139.117188 39.671875 138.886719 40.863281 138.4375 43.246094 C 139.296875 43.203125 140.152344 43.175781 141 43.160156 C 141.40625 40.996094 141.640625 39.804688 142.101562 37.542969 Z M 142.101562 37.542969 " fill-opacity="0.5" fill-rule="nonzero"/><path fill="#6b184e" d="M 175.152344 51.144531 L 174.238281 50.753906 C 162.214844 45.628906 150.515625 43.433594 138.480469 44.046875 L 137.464844 44.097656 L 137.652344 43.101562 C 138.101562 40.691406 138.332031 39.523438 138.816406 37.132812 L 138.941406 36.523438 L 139.558594 36.492188 C 145.816406 36.164062 152.09375 36.648438 158.210938 37.929688 C 164.074219 39.15625 170.039062 41.171875 175.9375 43.910156 L 176.511719 44.175781 L 176.382812 44.796875 C 175.945312 46.949219 175.742188 48.003906 175.335938 50.167969 Z M 142.332031 42.347656 C 147.253906 42.347656 152.183594 42.816406 157.027344 43.75 C 162.609375 44.824219 168.292969 46.554688 173.949219 48.894531 C 174.207031 47.515625 174.398438 46.546875 174.691406 45.101562 C 163.203125 39.855469 151.925781 37.550781 140.261719 38.0625 C 139.921875 39.726562 139.710938 40.8125 139.410156 42.402344 C 140.382812 42.367188 141.359375 42.347656 142.332031 42.347656 Z M 142.332031 42.347656 " fill-opacity="1" fill-rule="nonzero"/><path fill="#ff3b3c" d="M 176.042969 42.492188 C 175.863281 43.351562 175.777344 43.777344 175.601562 44.636719 C 164.113281 39.296875 152.285156 36.628906 139.601562 37.292969 C 139.792969 36.34375 139.890625 35.867188 140.089844 34.917969 C 140.828125 31.410156 142.582031 28.136719 145.175781 25.660156 C 147.597656 23.347656 150.855469 21.71875 154.09375 21.554688 C 159.558594 21.277344 164.449219 22.589844 169.121094 25.402344 C 174.648438 28.730469 177.402344 36.015625 176.042969 42.492188 Z M 176.042969 42.492188 " fill-opacity="1" fill-rule="nonzero"/><path fill="#ffffff" d="M 169.121094 25.402344 C 165.304688 23.105469 161.34375 21.808594 157.046875 21.5625 C 156.078125 21.507812 155.097656 21.503906 154.09375 21.554688 C 151.066406 21.707031 148.015625 23.144531 145.652344 25.222656 C 145.488281 25.367188 145.332031 25.511719 145.175781 25.660156 C 142.582031 28.136719 140.828125 31.410156 140.089844 34.917969 C 139.890625 35.867188 139.792969 36.34375 139.601562 37.292969 C 140.078125 37.265625 140.550781 37.25 141.023438 37.234375 C 141.046875 37.132812 141.066406 37.03125 141.089844 36.921875 C 141.828125 33.414062 143.582031 30.140625 146.175781 27.664062 C 146.726562 27.136719 147.320312 26.648438 147.949219 26.203125 C 149.089844 26.28125 150.527344 26.105469 152.027344 25.644531 C 153.730469 25.121094 155.167969 24.339844 156.066406 23.523438 C 161.140625 23.441406 165.726562 24.757812 170.121094 27.40625 C 172.164062 28.636719 173.824219 30.40625 175.042969 32.476562 C 173.820312 29.550781 171.796875 27.015625 169.121094 25.402344 Z M 169.121094 25.402344 " fill-opacity="0.5" fill-rule="nonzero"/><path fill="#6b184e" d="M 176.183594 45.789062 L 175.265625 45.363281 C 163.375 39.835938 151.722656 37.457031 139.644531 38.09375 L 138.613281 38.144531 L 138.816406 37.132812 C 139.011719 36.171875 139.109375 35.707031 139.308594 34.753906 C 140.085938 31.046875 141.972656 27.613281 144.625 25.082031 C 147.328125 22.496094 150.765625 20.921875 154.054688 20.753906 C 159.578125 20.472656 164.644531 21.769531 169.535156 24.71875 C 175.222656 28.140625 178.289062 35.6875 176.828125 42.65625 C 176.648438 43.507812 176.5625 43.929688 176.386719 44.796875 Z M 143.359375 36.394531 C 148.351562 36.394531 153.332031 36.90625 158.210938 37.929688 C 163.773438 39.09375 169.421875 40.964844 175.019531 43.492188 C 175.09375 43.136719 175.164062 42.796875 175.261719 42.328125 C 176.585938 36.003906 173.832031 29.175781 168.710938 26.089844 C 164.097656 23.3125 159.332031 22.089844 154.132812 22.351562 C 151.222656 22.5 148.160156 23.917969 145.726562 26.238281 C 143.308594 28.550781 141.585938 31.691406 140.875 35.082031 C 140.757812 35.636719 140.675781 36.027344 140.589844 36.445312 C 141.511719 36.410156 142.4375 36.394531 143.359375 36.394531 Z M 176.042969 42.492188 Z M 176.042969 42.492188 " fill-opacity="1" fill-rule="nonzero"/><path fill="#ffc3a1" d="M 168.835938 102.980469 C 167.207031 110.492188 162.316406 117.675781 158.484375 124.199219 C 156.929688 126.851562 155.410156 129.636719 153.609375 132.085938 C 152.25 133.929688 149.53125 134.097656 147.984375 132.378906 C 145.910156 130.0625 144.183594 127.3125 142.46875 124.6875 C 138.113281 118.023438 133.199219 109.953125 132.113281 101.863281 C 132.742188 99.078125 134.972656 96.304688 137.953125 96.429688 C 141.226562 96.566406 143.546875 102.992188 143.546875 102.992188 C 143.546875 102.992188 146.71875 95.46875 150.734375 95.84375 C 154.410156 96.1875 157.359375 103.382812 157.359375 103.382812 C 157.359375 103.382812 160 97.414062 163.40625 97.582031 C 166.242188 97.722656 168.320312 100.261719 168.835938 102.980469 Z M 168.835938 102.980469 " fill-opacity="1" fill-rule="nonzero"/><path fill="#6b184e" d="M 164.6875 97.824219 C 165.121094 98.5625 165.429688 99.386719 165.589844 100.226562 C 163.957031 107.738281 159.066406 114.921875 155.238281 121.445312 C 153.679688 124.097656 152.164062 126.882812 150.359375 129.332031 C 149.460938 130.550781 147.96875 131.03125 146.613281 130.726562 C 147.054688 131.292969 147.511719 131.847656 147.984375 132.378906 C 149.527344 134.097656 152.246094 133.929688 153.609375 132.085938 C 155.410156 129.636719 156.925781 126.851562 158.484375 124.199219 C 162.316406 117.675781 167.203125 110.496094 168.835938 102.980469 C 168.402344 100.691406 166.855469 98.53125 164.6875 97.824219 Z M 164.6875 97.824219 " fill-opacity="0.3" fill-rule="nonzero"/><path fill="#6b184e" d="M 159.6875 99 C 159.6875 99 159.699219 98.703125 159.695312 98.558594 C 159.703125 98.550781 159.710938 98.542969 159.722656 98.542969 C 159.707031 98.691406 159.6875 99 159.6875 99 Z M 159.6875 99 " fill-opacity="0.35" fill-rule="nonzero"/><path fill="#ffffff" d="M 157.632812 100.871094 C 159.984375 102.058594 163.347656 99.976562 165.699219 99.800781 C 166.246094 99.761719 166.816406 99.863281 167.335938 100.042969 C 166.207031 98.363281 164.53125 97.347656 162.714844 97.429688 C 160.433594 97.53125 158.511719 98.722656 157.632812 100.871094 Z M 157.632812 100.871094 " fill-opacity="0.5" fill-rule="nonzero"/><path fill="#ffffff" d="M 152.921875 98.121094 C 153.828125 98.050781 154.773438 98.246094 155.609375 98.585938 C 154.277344 96.808594 152.191406 95.722656 149.933594 95.839844 C 147.085938 95.992188 144.667969 97.976562 143.726562 100.652344 C 146.675781 101.210938 150.050781 98.347656 152.921875 98.121094 Z M 152.921875 98.121094 " fill-opacity="0.5" fill-rule="nonzero"/><path fill="#ffffff" d="M 132.078125 101.726562 C 133.710938 109.242188 138.601562 116.425781 142.433594 122.949219 C 143.988281 125.601562 145.503906 128.386719 147.308594 130.832031 C 147.8125 131.511719 148.511719 131.96875 149.246094 132.183594 C 147.84375 129.964844 146.539062 127.679688 145.234375 125.40625 C 141.722656 119.28125 138.015625 112.835938 135.632812 106.257812 C 134.867188 104.140625 135.730469 101.019531 137.535156 99.652344 C 138.382812 99.011719 139.394531 98.578125 140.488281 98.535156 C 141.242188 98.507812 141.964844 98.589844 142.632812 98.792969 C 141.550781 97.054688 139.617188 96.207031 137.511719 96.332031 C 134.648438 96.496094 132.597656 99.007812 132.078125 101.726562 Z M 132.078125 101.726562 " fill-opacity="0.5" fill-rule="nonzero"/><path fill="#ffffff" d="M 143.035156 99.867188 C 143.632812 99.320312 144.316406 98.882812 145.058594 98.585938 C 144.152344 99.792969 143.546875 102.992188 143.546875 102.992188 C 143.546875 102.992188 143.394531 100.75 143.035156 99.867188 Z M 143.035156 99.867188 " fill-opacity="0.3" fill-rule="nonzero"/><path fill="#ffffff" d="M 158.285156 100.042969 C 157.734375 100.925781 157.359375 103.382812 157.359375 103.382812 C 157.359375 103.382812 157.238281 101.5 156.941406 100.652344 C 157.351562 100.390625 157.804688 100.183594 158.285156 100.042969 Z M 158.285156 100.042969 " fill-opacity="0.3" fill-rule="nonzero"/><path fill="#6b184e" d="M 158.484375 124.199219 C 156.917969 126.855469 155.410156 129.636719 153.609375 132.085938 C 152.25 133.929688 149.53125 134.097656 147.984375 132.378906 C 145.910156 130.0625 144.203125 127.316406 142.46875 124.6875 C 144.546875 122.605469 147.511719 121.632812 150.402344 121.570312 C 153.273438 121.507812 156.257812 122.3125 158.484375 124.199219 Z M 158.484375 124.199219 " fill-opacity="1" fill-rule="nonzero"/><path fill="#ffffff" d="M 158.484375 124.199219 C 156.917969 126.855469 155.410156 129.636719 153.609375 132.085938 C 152.65625 133.375 151.046875 133.851562 149.640625 133.421875 C 150.128906 133.171875 150.574219 132.804688 150.941406 132.320312 C 151.289062 131.859375 151.855469 130.996094 152.558594 129.851562 C 154.566406 126.566406 152.429688 122.003906 148.65625 121.734375 C 148.625 121.734375 148.597656 121.734375 148.566406 121.734375 C 149.160156 121.640625 149.773438 121.585938 150.402344 121.570312 C 153.28125 121.503906 156.257812 122.3125 158.484375 124.199219 Z M 158.484375 124.199219 " fill-opacity="0.3" fill-rule="nonzero"/><g clip-path="url(#10a0e16dfa)"><path fill="#6b184e" d="M 150.664062 134.375 C 149.414062 134.375 148.230469 133.847656 147.390625 132.914062 C 145.570312 130.882812 144.03125 128.535156 142.542969 126.261719 C 142.296875 125.882812 142.050781 125.503906 141.800781 125.128906 L 141.441406 124.582031 L 141.902344 124.121094 C 142.984375 123.039062 144.308594 122.199219 145.851562 121.621094 C 147.265625 121.089844 148.789062 120.804688 150.382812 120.769531 C 153.710938 120.699219 156.769531 121.699219 159 123.589844 L 159.515625 124.023438 L 159.171875 124.609375 C 158.835938 125.179688 158.492188 125.769531 158.164062 126.34375 C 156.945312 128.441406 155.691406 130.609375 154.25 132.5625 C 153.453125 133.644531 152.222656 134.304688 150.878906 134.371094 C 150.804688 134.371094 150.734375 134.375 150.664062 134.375 Z M 143.511719 124.8125 C 143.632812 125.003906 143.757812 125.191406 143.882812 125.382812 C 145.335938 127.605469 146.84375 129.90625 148.582031 131.84375 C 149.144531 132.472656 149.957031 132.8125 150.800781 132.769531 C 151.664062 132.726562 152.453125 132.304688 152.964844 131.609375 C 154.351562 129.726562 155.585938 127.597656 156.777344 125.539062 C 156.996094 125.164062 157.21875 124.78125 157.441406 124.398438 C 155.5625 123.03125 153.09375 122.3125 150.417969 122.371094 C 147.746094 122.429688 145.265625 123.3125 143.511719 124.8125 Z M 143.511719 124.8125 " fill-opacity="1" fill-rule="nonzero"/></g><path fill="#6b184e" d="M 142.335938 125.953125 L 141.796875 125.125 C 139.714844 121.902344 137.328125 118.132812 135.351562 114.144531 C 133.140625 109.679688 131.820312 105.699219 131.320312 101.972656 L 131.304688 101.828125 L 131.335938 101.6875 C 132.035156 98.570312 134.546875 95.484375 137.984375 95.628906 C 140.449219 95.730469 142.617188 97.289062 143.667969 99.453125 C 144.113281 98.574219 144.703125 97.761719 145.410156 97.078125 C 146.945312 95.589844 148.863281 94.867188 150.804688 95.042969 C 152.664062 95.214844 154.445312 96.078125 155.824219 97.480469 C 156.535156 98.203125 157.09375 99.023438 157.488281 99.902344 C 157.851562 99.285156 158.316406 98.730469 158.871094 98.261719 C 160.136719 97.195312 161.765625 96.671875 163.460938 96.78125 C 165.023438 96.886719 166.449219 97.578125 167.589844 98.78125 C 168.609375 99.859375 169.332031 101.296875 169.621094 102.828125 L 169.652344 102.988281 L 169.617188 103.148438 C 168.234375 109.523438 164.648438 115.480469 161.179688 121.242188 C 160.480469 122.40625 159.816406 123.503906 159.175781 124.605469 L 158.695312 125.425781 L 157.96875 124.8125 C 156.035156 123.175781 153.355469 122.308594 150.417969 122.371094 C 147.492188 122.433594 144.800781 123.484375 143.03125 125.253906 Z M 132.925781 101.902344 C 133.964844 109.328125 138.226562 116.609375 142.628906 123.460938 C 143.5625 122.691406 144.640625 122.074219 145.851562 121.621094 C 147.265625 121.089844 148.789062 120.804688 150.382812 120.769531 C 153.355469 120.707031 156.113281 121.496094 158.257812 123.011719 C 158.757812 122.160156 159.273438 121.308594 159.808594 120.414062 C 163.179688 114.816406 166.664062 109.027344 168.019531 102.972656 C 167.5625 100.851562 165.933594 98.550781 163.355469 98.382812 C 160.714844 98.207031 158.5 100.070312 158.210938 102.71875 C 158.203125 102.8125 158.191406 102.882812 158.175781 102.949219 C 158.066406 103.421875 157.683594 103.621094 157.351562 103.613281 C 157.023438 103.601562 156.652344 103.378906 156.570312 102.902344 C 156.558594 102.839844 156.550781 102.765625 156.546875 102.671875 C 156.390625 99.628906 153.75 96.921875 150.664062 96.640625 C 147.457031 96.347656 144.835938 99.34375 144.398438 102.328125 C 144.386719 102.421875 144.371094 102.492188 144.355469 102.554688 C 144.234375 103.027344 143.84375 103.21875 143.511719 103.199219 C 143.179688 103.175781 142.816406 102.941406 142.753906 102.457031 C 142.746094 102.394531 142.738281 102.324219 142.738281 102.230469 C 142.675781 99.625 140.46875 97.335938 137.921875 97.230469 C 135.433594 97.125 133.511719 99.535156 132.925781 101.902344 Z M 158.148438 102.640625 Z M 156.613281 102.597656 Z M 142.804688 102.160156 Z M 142.804688 102.160156 Z M 142.804688 102.160156 " fill-opacity="1" fill-rule="nonzero"/><path fill="#ea5766" d="M 165.863281 78.46875 C 165.757812 79.253906 164.492188 79.808594 163.027344 79.703125 C 161.566406 79.597656 160.457031 78.867188 160.566406 78.066406 C 160.671875 77.269531 161.949219 76.71875 163.410156 76.835938 C 164.875 76.953125 165.96875 77.683594 165.863281 78.46875 Z M 165.863281 78.46875 " fill-opacity="1" fill-rule="nonzero"/><path fill="#6b184e" d="M 146.578125 65.921875 C 147.117188 63.160156 146.011719 60.617188 144.105469 60.242188 C 142.199219 59.867188 140.214844 61.800781 139.671875 64.558594 C 139.132812 67.320312 140.238281 69.863281 142.144531 70.238281 C 144.050781 70.613281 146.035156 68.679688 146.578125 65.921875 Z M 146.578125 65.921875 " fill-opacity="1" fill-rule="nonzero"/><path fill="#ffffff" d="M 143.703125 64.3125 C 143.902344 63.296875 143.519531 62.367188 142.855469 62.234375 C 142.1875 62.105469 141.488281 62.820312 141.289062 63.839844 C 141.089844 64.855469 141.46875 65.785156 142.132812 65.917969 C 142.800781 66.046875 143.503906 65.332031 143.703125 64.3125 Z M 143.703125 64.3125 " fill-opacity="1" fill-rule="nonzero"/><path fill="#6b184e" d="M 149.546875 70.015625 C 149.050781 73.035156 150.078125 76.503906 152.160156 76.84375 C 154.238281 77.1875 156.578125 74.273438 157.074219 71.253906 Z M 149.546875 70.015625 " fill-opacity="1" fill-rule="nonzero"/><path fill="#ed2e7a" d="M 149.679688 73.742188 C 150.503906 73.238281 151.5625 73.015625 152.664062 73.210938 C 153.882812 73.425781 154.886719 74.101562 155.46875 74.984375 C 154.519531 76.238281 153.300781 77.03125 152.15625 76.84375 C 150.941406 76.644531 150.082031 75.371094 149.679688 73.742188 Z M 149.679688 73.742188 " fill-opacity="1" fill-rule="nonzero"/><path fill="#6b184e" d="M 152.5 77.832031 C 152.335938 77.832031 152.171875 77.820312 152.003906 77.792969 C 150.671875 77.570312 149.597656 76.492188 148.984375 74.753906 C 148.46875 73.296875 148.328125 71.511719 148.601562 69.859375 C 148.6875 69.335938 149.179688 68.980469 149.699219 69.066406 L 157.230469 70.308594 C 157.480469 70.347656 157.703125 70.488281 157.851562 70.695312 C 158 70.902344 158.058594 71.160156 158.019531 71.410156 C 157.496094 74.59375 155.085938 77.832031 152.5 77.832031 Z M 150.390625 71.125 C 150.339844 72.171875 150.480469 73.238281 150.789062 74.113281 C 151.15625 75.148438 151.710938 75.800781 152.3125 75.898438 C 152.371094 75.90625 152.429688 75.914062 152.492188 75.914062 C 153.636719 75.914062 155.242188 74.253906 155.910156 72.035156 Z M 150.390625 71.125 " fill-opacity="1" fill-rule="nonzero"/><path fill="#6b184e" d="M 167.308594 69.105469 C 167.847656 66.347656 166.742188 63.804688 164.835938 63.425781 C 162.929688 63.050781 160.945312 64.984375 160.402344 67.746094 C 159.863281 70.503906 160.96875 73.050781 162.875 73.425781 C 164.78125 73.800781 166.765625 71.867188 167.308594 69.105469 Z M 167.308594 69.105469 " fill-opacity="1" fill-rule="nonzero"/><path fill="#ffffff" d="M 164.433594 67.5 C 164.632812 66.484375 164.25 65.554688 163.585938 65.421875 C 162.917969 65.289062 162.21875 66.007812 162.019531 67.023438 C 161.820312 68.042969 162.199219 68.972656 162.863281 69.105469 C 163.53125 69.234375 164.234375 68.515625 164.433594 67.5 Z M 164.433594 67.5 " fill-opacity="1" fill-rule="nonzero"/><path fill="#ffffff" d="M 141.308594 87.140625 C 141.113281 89.65625 140.21875 91.648438 139.273438 91.585938 C 138.328125 91.523438 137.691406 89.414062 137.886719 86.875 C 138.082031 84.332031 139.039062 82.34375 139.984375 82.429688 C 140.925781 82.515625 141.503906 84.625 141.308594 87.140625 Z M 141.308594 87.140625 " fill-opacity="0.3" fill-rule="nonzero"/><path fill="#ea5766" d="M 143.871094 75.214844 C 143.769531 76 142.5 76.554688 141.039062 76.449219 C 139.574219 76.34375 138.46875 75.609375 138.574219 74.8125 C 138.679688 74.015625 139.957031 73.464844 141.417969 73.582031 C 142.882812 73.699219 143.976562 74.429688 143.871094 75.214844 Z M 143.871094 75.214844 " fill-opacity="1" fill-rule="nonzero"/><path fill="#6b184e" d="M 175.070312 32.636719 C 175.0625 32.558594 175.050781 32.5 175.042969 32.476562 C 175.03125 32.445312 174.988281 32.382812 174.921875 32.289062 C 173.691406 29.527344 171.714844 27.097656 169.125 25.402344 C 169.089844 25.382812 169.054688 25.359375 169.023438 25.339844 C 170.15625 26.625 171.050781 28.128906 171.695312 29.742188 C 171.882812 32.210938 172.785156 39.273438 158.105469 36.613281 C 152.671875 35.898438 147.164062 35.808594 141.558594 36.371094 C 141.554688 36.371094 141.550781 36.371094 141.546875 36.371094 C 141.546875 36.371094 141.554688 36.371094 141.554688 36.371094 C 140.953125 36.433594 140.351562 36.496094 139.75 36.574219 C 139.6875 36.859375 139.660156 37.003906 139.601562 37.292969 C 143.265625 37.101562 146.859375 37.1875 150.390625 37.539062 C 152.1875 37.78125 154.070312 38.039062 155.851562 38.289062 C 162.601562 39.488281 169.15625 41.640625 175.601562 44.636719 C 175.777344 43.777344 175.863281 43.351562 176.042969 42.492188 C 176.742188 39.164062 176.355469 35.707031 175.070312 32.636719 Z M 175.070312 32.636719 " fill-opacity="0.3" fill-rule="nonzero"/></svg>