<svg xmlns="http://www.w3.org/2000/svg" xmlns:xlink="http://www.w3.org/1999/xlink" width="300" zoomAndPan="magnify" viewBox="0 0 224.87999 149.999998" height="200" preserveAspectRatio="xMidYMid meet" version="1.0"><defs><g/></defs><g fill="#597cff" fill-opacity="1"><g transform="translate(10.83325, 84.484686)"><g><path d="M 0.703125 -15.738281 L 6.394531 -15.839844 L 6.21875 0 L 14.085938 0 L 13.980469 -15.980469 L 19.039062 -16.085938 L 18.933594 -24.589844 L 0.703125 -24.238281 Z M 0.703125 -15.738281 "/></g></g></g><g fill="#597cff" fill-opacity="1"><g transform="translate(30.216635, 84.484686)"><g><path d="M 0.351562 0 L 7.550781 0 L 8.394531 -4.671875 L 13.3125 -4.671875 L 14.15625 0 L 21.355469 0 L 15.738281 -24.589844 L 5.972656 -24.238281 Z M 12.820312 -8.148438 L 8.886719 -8.148438 L 9.976562 -15.070312 L 11.730469 -15.070312 Z M 12.820312 -8.148438 "/></g></g></g><g fill="#597cff" fill-opacity="1"><g transform="translate(51.917593, 84.484686)"><g><path d="M 0.773438 -24.203125 L 0.738281 0 L 10.609375 0.667969 C 10.75 0.703125 10.925781 0.703125 11.066406 0.703125 L 11.519531 0.703125 C 13.136719 0.703125 14.472656 0.457031 15.527344 -0.105469 C 16.578125 -0.632812 17.421875 -1.300781 18.054688 -2.144531 C 18.441406 -2.632812 18.792969 -3.40625 19.074219 -4.425781 C 19.355469 -5.445312 19.566406 -6.605469 19.707031 -7.867188 C 19.847656 -9.132812 19.917969 -10.503906 19.917969 -11.90625 C 19.917969 -13.3125 19.882812 -14.683594 19.742188 -15.980469 C 19.601562 -17.246094 19.425781 -18.40625 19.144531 -19.460938 C 18.863281 -20.511719 18.511719 -21.285156 18.089844 -21.847656 C 17.597656 -22.445312 17.105469 -22.9375 16.542969 -23.289062 C 15.980469 -23.640625 15.386719 -23.921875 14.753906 -24.132812 C 14.121094 -24.34375 13.488281 -24.484375 12.785156 -24.554688 C 12.082031 -24.625 11.378906 -24.660156 10.679688 -24.660156 Z M 10.082031 -16.367188 C 10.1875 -16.367188 10.292969 -16.402344 10.363281 -16.402344 L 10.644531 -16.402344 C 11.273438 -16.402344 11.730469 -16.226562 12.082031 -15.945312 C 12.398438 -15.667969 12.609375 -15.210938 12.75 -14.648438 C 12.855469 -14.085938 12.890625 -13.347656 12.890625 -12.503906 C 12.890625 -11.660156 12.855469 -10.644531 12.785156 -9.519531 C 12.75 -8.921875 12.714844 -8.359375 12.714844 -7.832031 C 12.679688 -7.304688 12.574219 -6.847656 12.433594 -6.429688 C 12.292969 -6.007812 12.011719 -5.691406 11.660156 -5.445312 C 11.273438 -5.199219 10.714844 -5.058594 10.011719 -5.023438 L 9.589844 -5.023438 C 9.203125 -5.023438 8.746094 -5.023438 8.21875 -5.058594 C 7.691406 -5.058594 7.339844 -5.09375 7.199219 -5.164062 L 7.199219 -16.121094 C 7.269531 -16.15625 7.445312 -16.191406 7.726562 -16.226562 C 7.972656 -16.226562 8.253906 -16.261719 8.570312 -16.261719 C 8.851562 -16.261719 9.167969 -16.296875 9.449219 -16.332031 C 9.730469 -16.332031 9.941406 -16.367188 10.082031 -16.367188 Z M 10.082031 -16.367188 "/></g></g></g><g fill="#597cff" fill-opacity="1"><g transform="translate(72.740684, 84.484686)"><g><path d="M 0.351562 0 L 7.550781 0 L 8.394531 -4.671875 L 13.3125 -4.671875 L 14.15625 0 L 21.355469 0 L 15.738281 -24.589844 L 5.972656 -24.238281 Z M 12.820312 -8.148438 L 8.886719 -8.148438 L 9.976562 -15.070312 L 11.730469 -15.070312 Z M 12.820312 -8.148438 "/></g></g></g><g fill="#597cff" fill-opacity="1"><g transform="translate(94.441641, 84.484686)"><g/></g></g><g fill="#ffffff" fill-opacity="1"><g transform="translate(8.970397, 82.621836)"><g><path d="M 0.703125 -15.738281 L 6.394531 -15.839844 L 6.21875 0 L 14.085938 0 L 13.980469 -15.980469 L 19.039062 -16.085938 L 18.933594 -24.589844 L 0.703125 -24.238281 Z M 0.703125 -15.738281 "/></g></g></g><g fill="#ffffff" fill-opacity="1"><g transform="translate(28.353782, 82.621836)"><g><path d="M 0.351562 0 L 7.550781 0 L 8.394531 -4.671875 L 13.3125 -4.671875 L 14.15625 0 L 21.355469 0 L 15.738281 -24.589844 L 5.972656 -24.238281 Z M 12.820312 -8.148438 L 8.886719 -8.148438 L 9.976562 -15.070312 L 11.730469 -15.070312 Z M 12.820312 -8.148438 "/></g></g></g><g fill="#ffffff" fill-opacity="1"><g transform="translate(50.054739, 82.621836)"><g><path d="M 0.773438 -24.203125 L 0.738281 0 L 10.609375 0.667969 C 10.75 0.703125 10.925781 0.703125 11.066406 0.703125 L 11.519531 0.703125 C 13.136719 0.703125 14.472656 0.457031 15.527344 -0.105469 C 16.578125 -0.632812 17.421875 -1.300781 18.054688 -2.144531 C 18.441406 -2.632812 18.792969 -3.40625 19.074219 -4.425781 C 19.355469 -5.445312 19.566406 -6.605469 19.707031 -7.867188 C 19.847656 -9.132812 19.917969 -10.503906 19.917969 -11.90625 C 19.917969 -13.3125 19.882812 -14.683594 19.742188 -15.980469 C 19.601562 -17.246094 19.425781 -18.40625 19.144531 -19.460938 C 18.863281 -20.511719 18.511719 -21.285156 18.089844 -21.847656 C 17.597656 -22.445312 17.105469 -22.9375 16.542969 -23.289062 C 15.980469 -23.640625 15.386719 -23.921875 14.753906 -24.132812 C 14.121094 -24.34375 13.488281 -24.484375 12.785156 -24.554688 C 12.082031 -24.625 11.378906 -24.660156 10.679688 -24.660156 Z M 10.082031 -16.367188 C 10.1875 -16.367188 10.292969 -16.402344 10.363281 -16.402344 L 10.644531 -16.402344 C 11.273438 -16.402344 11.730469 -16.226562 12.082031 -15.945312 C 12.398438 -15.667969 12.609375 -15.210938 12.75 -14.648438 C 12.855469 -14.085938 12.890625 -13.347656 12.890625 -12.503906 C 12.890625 -11.660156 12.855469 -10.644531 12.785156 -9.519531 C 12.75 -8.921875 12.714844 -8.359375 12.714844 -7.832031 C 12.679688 -7.304688 12.574219 -6.847656 12.433594 -6.429688 C 12.292969 -6.007812 12.011719 -5.691406 11.660156 -5.445312 C 11.273438 -5.199219 10.714844 -5.058594 10.011719 -5.023438 L 9.589844 -5.023438 C 9.203125 -5.023438 8.746094 -5.023438 8.21875 -5.058594 C 7.691406 -5.058594 7.339844 -5.09375 7.199219 -5.164062 L 7.199219 -16.121094 C 7.269531 -16.15625 7.445312 -16.191406 7.726562 -16.226562 C 7.972656 -16.226562 8.253906 -16.261719 8.570312 -16.261719 C 8.851562 -16.261719 9.167969 -16.296875 9.449219 -16.332031 C 9.730469 -16.332031 9.941406 -16.367188 10.082031 -16.367188 Z M 10.082031 -16.367188 "/></g></g></g><g fill="#ffffff" fill-opacity="1"><g transform="translate(70.877831, 82.621836)"><g><path d="M 0.351562 0 L 7.550781 0 L 8.394531 -4.671875 L 13.3125 -4.671875 L 14.15625 0 L 21.355469 0 L 15.738281 -24.589844 L 5.972656 -24.238281 Z M 12.820312 -8.148438 L 8.886719 -8.148438 L 9.976562 -15.070312 L 11.730469 -15.070312 Z M 12.820312 -8.148438 "/></g></g></g><g fill="#ffffff" fill-opacity="1"><g transform="translate(92.578788, 82.621836)"><g/></g></g><g fill="#597cff" fill-opacity="1"><g transform="translate(106.741401, 84.484686)"><g><path d="M 0.808594 0 L 8.007812 0 L 8.007812 -11.101562 L 11.800781 0 L 18.089844 0 L 18.828125 -24.589844 L 11.695312 -24.238281 L 11.695312 -11.765625 L 8.007812 -24.589844 L 1.125 -24.238281 Z M 0.808594 0 "/></g></g></g><g fill="#597cff" fill-opacity="1"><g transform="translate(126.440823, 84.484686)"><g><path d="M 0.703125 -14.894531 L 0.808594 -9.167969 C 0.878906 -7.9375 0.984375 -6.710938 1.195312 -5.515625 C 1.371094 -4.320312 1.792969 -3.230469 2.421875 -2.28125 C 3.054688 -1.335938 3.96875 -0.5625 5.199219 0 C 6.429688 0.597656 8.148438 0.878906 10.328125 0.878906 C 12.644531 0.878906 14.472656 0.597656 15.804688 0 C 17.140625 -0.5625 18.125 -1.335938 18.757812 -2.28125 C 19.390625 -3.230469 19.8125 -4.320312 19.953125 -5.515625 C 20.09375 -6.710938 20.199219 -7.9375 20.199219 -9.203125 L 20.09375 -14.964844 C 20.09375 -16.15625 19.988281 -17.351562 19.847656 -18.546875 C 19.671875 -19.742188 19.285156 -20.792969 18.6875 -21.742188 C 18.089844 -22.691406 17.210938 -23.464844 16.050781 -24.0625 C 14.894531 -24.660156 13.3125 -24.972656 11.34375 -24.972656 L 10.574219 -24.972656 C 8.21875 -24.867188 6.394531 -24.519531 5.09375 -23.957031 C 3.757812 -23.359375 2.773438 -22.585938 2.144531 -21.671875 C 1.476562 -20.757812 1.054688 -19.707031 0.914062 -18.546875 C 0.773438 -17.351562 0.703125 -16.15625 0.703125 -14.894531 Z M 10.433594 -16.050781 C 10.539062 -16.050781 10.644531 -16.085938 10.785156 -16.085938 L 11.136719 -16.085938 C 11.730469 -16.085938 12.1875 -15.945312 12.46875 -15.703125 C 12.75 -15.457031 12.960938 -15.070312 13.101562 -14.507812 C 13.207031 -13.945312 13.242188 -13.207031 13.242188 -12.328125 C 13.207031 -11.414062 13.171875 -10.328125 13.136719 -9.0625 C 13.101562 -8.21875 13.066406 -7.445312 13.066406 -6.8125 C 13.03125 -6.183594 12.925781 -5.621094 12.785156 -5.199219 C 12.644531 -4.777344 12.363281 -4.425781 12.011719 -4.214844 C 11.625 -4.003906 11.066406 -3.863281 10.363281 -3.828125 L 10.046875 -3.828125 C 9.414062 -3.828125 8.921875 -3.933594 8.605469 -4.179688 C 8.253906 -4.390625 8.007812 -4.742188 7.867188 -5.199219 C 7.691406 -5.65625 7.585938 -6.21875 7.585938 -6.847656 C 7.550781 -7.480469 7.550781 -8.21875 7.550781 -9.0625 C 7.550781 -10.398438 7.515625 -11.484375 7.515625 -12.363281 C 7.480469 -13.242188 7.550781 -13.945312 7.691406 -14.472656 C 7.832031 -15 8.113281 -15.386719 8.535156 -15.597656 C 8.957031 -15.804688 9.589844 -15.980469 10.433594 -16.050781 Z M 10.433594 -16.050781 "/></g></g></g><g fill="#597cff" fill-opacity="1"><g transform="translate(147.334148, 84.484686)"><g><path d="M 0.703125 -15.738281 L 6.394531 -15.839844 L 6.21875 0 L 14.085938 0 L 13.980469 -15.980469 L 19.039062 -16.085938 L 18.933594 -24.589844 L 0.703125 -24.238281 Z M 0.703125 -15.738281 "/></g></g></g><g fill="#597cff" fill-opacity="1"><g transform="translate(166.717534, 84.484686)"><g><path d="M 0.703125 0 L 17.070312 0 L 17.070312 -5.832031 L 7.023438 -5.128906 L 7.023438 -8.183594 L 15 -8.535156 L 15 -15.035156 L 7.058594 -14.332031 L 7.058594 -17.351562 L 17.070312 -17.703125 L 17.070312 -24.589844 L 0.703125 -24.238281 Z M 0.703125 0 "/></g></g></g><g fill="#597cff" fill-opacity="1"><g transform="translate(184.485633, 84.484686)"><g><path d="M 10.152344 -2.421875 L 10.082031 -2.421875 C 9.589844 -2.421875 9.238281 -2.492188 8.957031 -2.632812 C 8.675781 -2.773438 8.5 -3.019531 8.359375 -3.300781 C 8.21875 -3.582031 8.113281 -3.96875 8.078125 -4.390625 C 8.042969 -4.8125 8.042969 -5.269531 8.042969 -5.832031 L 0.914062 -6.394531 C 0.84375 -5.058594 1.089844 -3.863281 1.6875 -2.808594 C 1.898438 -2.351562 2.214844 -1.898438 2.632812 -1.476562 C 3.054688 -1.054688 3.582031 -0.667969 4.214844 -0.351562 C 4.847656 0 5.585938 0.246094 6.464844 0.457031 C 7.339844 0.667969 8.394531 0.773438 9.589844 0.773438 C 10.082031 0.773438 10.679688 0.773438 11.378906 0.738281 C 12.082031 0.703125 12.820312 0.632812 13.59375 0.492188 C 14.367188 0.386719 15.105469 0.210938 15.875 -0.0703125 C 16.613281 -0.316406 17.28125 -0.667969 17.878906 -1.125 C 18.476562 -1.582031 18.96875 -2.144531 19.320312 -2.84375 C 19.671875 -3.511719 19.882812 -4.355469 19.882812 -5.339844 C 19.882812 -6.605469 19.707031 -7.585938 19.355469 -8.324219 C 19.003906 -9.027344 18.546875 -9.589844 17.914062 -9.941406 C 17.28125 -10.292969 16.507812 -10.539062 15.667969 -10.644531 C 14.789062 -10.75 13.839844 -10.820312 12.785156 -10.820312 C 12.292969 -10.820312 11.835938 -10.785156 11.34375 -10.785156 C 10.855469 -10.785156 10.363281 -10.785156 9.835938 -10.785156 C 9.132812 -10.785156 8.605469 -10.960938 8.21875 -11.34375 C 7.832031 -11.730469 7.65625 -12.292969 7.65625 -12.996094 C 7.65625 -13.523438 7.621094 -14.085938 7.585938 -14.648438 C 7.515625 -15.210938 7.515625 -15.769531 7.585938 -16.261719 C 7.65625 -16.753906 7.796875 -17.175781 8.042969 -17.527344 C 8.289062 -17.878906 8.710938 -18.125 9.308594 -18.265625 C 9.554688 -18.300781 9.800781 -18.335938 10.011719 -18.371094 C 10.222656 -18.40625 10.398438 -18.441406 10.609375 -18.441406 C 11.414062 -18.441406 11.941406 -18.160156 12.152344 -17.667969 C 12.363281 -17.140625 12.503906 -16.402344 12.503906 -15.492188 L 12.503906 -12.398438 L 19.425781 -12.398438 C 19.566406 -13.3125 19.671875 -14.296875 19.707031 -15.28125 C 19.707031 -16.121094 19.601562 -17.035156 19.460938 -18.054688 C 19.320312 -19.039062 19.003906 -20.023438 18.511719 -20.96875 C 18.195312 -21.53125 17.808594 -22.09375 17.351562 -22.585938 C 16.894531 -23.078125 16.332031 -23.535156 15.703125 -23.921875 C 15.035156 -24.308594 14.261719 -24.625 13.417969 -24.832031 C 12.574219 -25.042969 11.589844 -25.183594 10.46875 -25.183594 C 8.359375 -25.183594 6.675781 -24.9375 5.480469 -24.484375 C 4.25 -24.027344 3.265625 -23.429688 2.527344 -22.726562 C 1.863281 -22.09375 1.371094 -21.390625 1.089844 -20.652344 C 0.773438 -19.917969 0.5625 -19.179688 0.457031 -18.476562 C 0.351562 -17.738281 0.316406 -17.035156 0.351562 -16.402344 C 0.351562 -15.738281 0.386719 -15.175781 0.386719 -14.753906 C 0.386719 -12.855469 0.597656 -11.414062 1.089844 -10.433594 C 1.582031 -9.414062 2.386719 -8.710938 3.546875 -8.289062 C 4.003906 -8.078125 4.425781 -7.9375 4.847656 -7.832031 C 5.269531 -7.726562 5.691406 -7.65625 6.183594 -7.585938 C 6.675781 -7.515625 7.199219 -7.480469 7.761719 -7.480469 C 8.324219 -7.480469 8.957031 -7.480469 9.730469 -7.480469 L 12.855469 -7.480469 C 12.925781 -6.289062 12.890625 -5.339844 12.820312 -4.671875 C 12.75 -3.96875 12.574219 -3.476562 12.363281 -3.125 C 12.117188 -2.773438 11.800781 -2.597656 11.449219 -2.527344 C 11.101562 -2.457031 10.644531 -2.421875 10.152344 -2.421875 Z M 10.152344 -2.421875 "/></g></g></g><g fill="#597cff" fill-opacity="1"><g transform="translate(204.711773, 84.484686)"><g><path d="M 1.054688 -24.238281 L 1.757812 -6.570312 L 6.746094 -6.953125 L 7.445312 -24.589844 Z M 1.335938 -2.351562 C 1.335938 -1.96875 1.371094 -1.582031 1.441406 -1.230469 C 1.511719 -0.878906 1.652344 -0.527344 1.863281 -0.246094 C 2.074219 0.0351562 2.351562 0.28125 2.773438 0.457031 C 3.195312 0.632812 3.722656 0.703125 4.425781 0.703125 C 5.199219 0.703125 5.796875 0.632812 6.21875 0.457031 C 6.640625 0.28125 6.988281 0.0351562 7.199219 -0.246094 C 7.410156 -0.527344 7.515625 -0.878906 7.585938 -1.265625 C 7.65625 -1.617188 7.691406 -2.003906 7.691406 -2.421875 C 7.691406 -2.773438 7.65625 -3.125 7.621094 -3.476562 C 7.550781 -3.828125 7.445312 -4.144531 7.269531 -4.425781 C 7.058594 -4.707031 6.777344 -4.917969 6.359375 -5.09375 C 5.9375 -5.269531 5.375 -5.375 4.636719 -5.375 C 3.441406 -5.375 2.5625 -5.164062 2.074219 -4.742188 C 1.582031 -4.320312 1.335938 -3.511719 1.335938 -2.351562 Z M 1.335938 -2.351562 "/></g></g></g><g fill="#ffd200" fill-opacity="1"><g transform="translate(104.878547, 82.621836)"><g><path d="M 0.808594 0 L 8.007812 0 L 8.007812 -11.101562 L 11.800781 0 L 18.089844 0 L 18.828125 -24.589844 L 11.695312 -24.238281 L 11.695312 -11.765625 L 8.007812 -24.589844 L 1.125 -24.238281 Z M 0.808594 0 "/></g></g></g><g fill="#ffd200" fill-opacity="1"><g transform="translate(124.57797, 82.621836)"><g><path d="M 0.703125 -14.894531 L 0.808594 -9.167969 C 0.878906 -7.9375 0.984375 -6.710938 1.195312 -5.515625 C 1.371094 -4.320312 1.792969 -3.230469 2.421875 -2.28125 C 3.054688 -1.335938 3.96875 -0.5625 5.199219 0 C 6.429688 0.597656 8.148438 0.878906 10.328125 0.878906 C 12.644531 0.878906 14.472656 0.597656 15.804688 0 C 17.140625 -0.5625 18.125 -1.335938 18.757812 -2.28125 C 19.390625 -3.230469 19.8125 -4.320312 19.953125 -5.515625 C 20.09375 -6.710938 20.199219 -7.9375 20.199219 -9.203125 L 20.09375 -14.964844 C 20.09375 -16.15625 19.988281 -17.351562 19.847656 -18.546875 C 19.671875 -19.742188 19.285156 -20.792969 18.6875 -21.742188 C 18.089844 -22.691406 17.210938 -23.464844 16.050781 -24.0625 C 14.894531 -24.660156 13.3125 -24.972656 11.34375 -24.972656 L 10.574219 -24.972656 C 8.21875 -24.867188 6.394531 -24.519531 5.09375 -23.957031 C 3.757812 -23.359375 2.773438 -22.585938 2.144531 -21.671875 C 1.476562 -20.757812 1.054688 -19.707031 0.914062 -18.546875 C 0.773438 -17.351562 0.703125 -16.15625 0.703125 -14.894531 Z M 10.433594 -16.050781 C 10.539062 -16.050781 10.644531 -16.085938 10.785156 -16.085938 L 11.136719 -16.085938 C 11.730469 -16.085938 12.1875 -15.945312 12.46875 -15.703125 C 12.75 -15.457031 12.960938 -15.070312 13.101562 -14.507812 C 13.207031 -13.945312 13.242188 -13.207031 13.242188 -12.328125 C 13.207031 -11.414062 13.171875 -10.328125 13.136719 -9.0625 C 13.101562 -8.21875 13.066406 -7.445312 13.066406 -6.8125 C 13.03125 -6.183594 12.925781 -5.621094 12.785156 -5.199219 C 12.644531 -4.777344 12.363281 -4.425781 12.011719 -4.214844 C 11.625 -4.003906 11.066406 -3.863281 10.363281 -3.828125 L 10.046875 -3.828125 C 9.414062 -3.828125 8.921875 -3.933594 8.605469 -4.179688 C 8.253906 -4.390625 8.007812 -4.742188 7.867188 -5.199219 C 7.691406 -5.65625 7.585938 -6.21875 7.585938 -6.847656 C 7.550781 -7.480469 7.550781 -8.21875 7.550781 -9.0625 C 7.550781 -10.398438 7.515625 -11.484375 7.515625 -12.363281 C 7.480469 -13.242188 7.550781 -13.945312 7.691406 -14.472656 C 7.832031 -15 8.113281 -15.386719 8.535156 -15.597656 C 8.957031 -15.804688 9.589844 -15.980469 10.433594 -16.050781 Z M 10.433594 -16.050781 "/></g></g></g><g fill="#ffd200" fill-opacity="1"><g transform="translate(145.471295, 82.621836)"><g><path d="M 0.703125 -15.738281 L 6.394531 -15.839844 L 6.21875 0 L 14.085938 0 L 13.980469 -15.980469 L 19.039062 -16.085938 L 18.933594 -24.589844 L 0.703125 -24.238281 Z M 0.703125 -15.738281 "/></g></g></g><g fill="#ffd200" fill-opacity="1"><g transform="translate(164.85468, 82.621836)"><g><path d="M 0.703125 0 L 17.070312 0 L 17.070312 -5.832031 L 7.023438 -5.128906 L 7.023438 -8.183594 L 15 -8.535156 L 15 -15.035156 L 7.058594 -14.332031 L 7.058594 -17.351562 L 17.070312 -17.703125 L 17.070312 -24.589844 L 0.703125 -24.238281 Z M 0.703125 0 "/></g></g></g><g fill="#ffd200" fill-opacity="1"><g transform="translate(182.62278, 82.621836)"><g><path d="M 10.152344 -2.421875 L 10.082031 -2.421875 C 9.589844 -2.421875 9.238281 -2.492188 8.957031 -2.632812 C 8.675781 -2.773438 8.5 -3.019531 8.359375 -3.300781 C 8.21875 -3.582031 8.113281 -3.96875 8.078125 -4.390625 C 8.042969 -4.8125 8.042969 -5.269531 8.042969 -5.832031 L 0.914062 -6.394531 C 0.84375 -5.058594 1.089844 -3.863281 1.6875 -2.808594 C 1.898438 -2.351562 2.214844 -1.898438 2.632812 -1.476562 C 3.054688 -1.054688 3.582031 -0.667969 4.214844 -0.351562 C 4.847656 0 5.585938 0.246094 6.464844 0.457031 C 7.339844 0.667969 8.394531 0.773438 9.589844 0.773438 C 10.082031 0.773438 10.679688 0.773438 11.378906 0.738281 C 12.082031 0.703125 12.820312 0.632812 13.59375 0.492188 C 14.367188 0.386719 15.105469 0.210938 15.875 -0.0703125 C 16.613281 -0.316406 17.28125 -0.667969 17.878906 -1.125 C 18.476562 -1.582031 18.96875 -2.144531 19.320312 -2.84375 C 19.671875 -3.511719 19.882812 -4.355469 19.882812 -5.339844 C 19.882812 -6.605469 19.707031 -7.585938 19.355469 -8.324219 C 19.003906 -9.027344 18.546875 -9.589844 17.914062 -9.941406 C 17.28125 -10.292969 16.507812 -10.539062 15.667969 -10.644531 C 14.789062 -10.75 13.839844 -10.820312 12.785156 -10.820312 C 12.292969 -10.820312 11.835938 -10.785156 11.34375 -10.785156 C 10.855469 -10.785156 10.363281 -10.785156 9.835938 -10.785156 C 9.132812 -10.785156 8.605469 -10.960938 8.21875 -11.34375 C 7.832031 -11.730469 7.65625 -12.292969 7.65625 -12.996094 C 7.65625 -13.523438 7.621094 -14.085938 7.585938 -14.648438 C 7.515625 -15.210938 7.515625 -15.769531 7.585938 -16.261719 C 7.65625 -16.753906 7.796875 -17.175781 8.042969 -17.527344 C 8.289062 -17.878906 8.710938 -18.125 9.308594 -18.265625 C 9.554688 -18.300781 9.800781 -18.335938 10.011719 -18.371094 C 10.222656 -18.40625 10.398438 -18.441406 10.609375 -18.441406 C 11.414062 -18.441406 11.941406 -18.160156 12.152344 -17.667969 C 12.363281 -17.140625 12.503906 -16.402344 12.503906 -15.492188 L 12.503906 -12.398438 L 19.425781 -12.398438 C 19.566406 -13.3125 19.671875 -14.296875 19.707031 -15.28125 C 19.707031 -16.121094 19.601562 -17.035156 19.460938 -18.054688 C 19.320312 -19.039062 19.003906 -20.023438 18.511719 -20.96875 C 18.195312 -21.53125 17.808594 -22.09375 17.351562 -22.585938 C 16.894531 -23.078125 16.332031 -23.535156 15.703125 -23.921875 C 15.035156 -24.308594 14.261719 -24.625 13.417969 -24.832031 C 12.574219 -25.042969 11.589844 -25.183594 10.46875 -25.183594 C 8.359375 -25.183594 6.675781 -24.9375 5.480469 -24.484375 C 4.25 -24.027344 3.265625 -23.429688 2.527344 -22.726562 C 1.863281 -22.09375 1.371094 -21.390625 1.089844 -20.652344 C 0.773438 -19.917969 0.5625 -19.179688 0.457031 -18.476562 C 0.351562 -17.738281 0.316406 -17.035156 0.351562 -16.402344 C 0.351562 -15.738281 0.386719 -15.175781 0.386719 -14.753906 C 0.386719 -12.855469 0.597656 -11.414062 1.089844 -10.433594 C 1.582031 -9.414062 2.386719 -8.710938 3.546875 -8.289062 C 4.003906 -8.078125 4.425781 -7.9375 4.847656 -7.832031 C 5.269531 -7.726562 5.691406 -7.65625 6.183594 -7.585938 C 6.675781 -7.515625 7.199219 -7.480469 7.761719 -7.480469 C 8.324219 -7.480469 8.957031 -7.480469 9.730469 -7.480469 L 12.855469 -7.480469 C 12.925781 -6.289062 12.890625 -5.339844 12.820312 -4.671875 C 12.75 -3.96875 12.574219 -3.476562 12.363281 -3.125 C 12.117188 -2.773438 11.800781 -2.597656 11.449219 -2.527344 C 11.101562 -2.457031 10.644531 -2.421875 10.152344 -2.421875 Z M 10.152344 -2.421875 "/></g></g></g><g fill="#ffd200" fill-opacity="1"><g transform="translate(202.848919, 82.621836)"><g><path d="M 1.054688 -24.238281 L 1.757812 -6.570312 L 6.746094 -6.953125 L 7.445312 -24.589844 Z M 1.335938 -2.351562 C 1.335938 -1.96875 1.371094 -1.582031 1.441406 -1.230469 C 1.511719 -0.878906 1.652344 -0.527344 1.863281 -0.246094 C 2.074219 0.0351562 2.351562 0.28125 2.773438 0.457031 C 3.195312 0.632812 3.722656 0.703125 4.425781 0.703125 C 5.199219 0.703125 5.796875 0.632812 6.21875 0.457031 C 6.640625 0.28125 6.988281 0.0351562 7.199219 -0.246094 C 7.410156 -0.527344 7.515625 -0.878906 7.585938 -1.265625 C 7.65625 -1.617188 7.691406 -2.003906 7.691406 -2.421875 C 7.691406 -2.773438 7.65625 -3.125 7.621094 -3.476562 C 7.550781 -3.828125 7.445312 -4.144531 7.269531 -4.425781 C 7.058594 -4.707031 6.777344 -4.917969 6.359375 -5.09375 C 5.9375 -5.269531 5.375 -5.375 4.636719 -5.375 C 3.441406 -5.375 2.5625 -5.164062 2.074219 -4.742188 C 1.582031 -4.320312 1.335938 -3.511719 1.335938 -2.351562 Z M 1.335938 -2.351562 "/></g></g></g></svg>