<svg xmlns="http://www.w3.org/2000/svg" xmlns:xlink="http://www.w3.org/1999/xlink" width="300" zoomAndPan="magnify" viewBox="0 0 224.87999 149.999998" height="200" preserveAspectRatio="xMidYMid meet" version="1.0"><defs><g/></defs><g fill="#ffa857" fill-opacity="1"><g transform="translate(18.41457, 96.130128)"><g><path d="M 5.6875 -28.265625 L 0.234375 -28.265625 L 2.546875 -38.71875 L 14.515625 -38.71875 L 14.859375 -40.046875 L 23.921875 -40.046875 L 21.296875 -28.265625 L 16.140625 -28.265625 L 16.140625 0 L 5.6875 0 Z M 5.6875 -28.265625 "/></g></g></g><g fill="#ffa857" fill-opacity="1"><g transform="translate(41.401423, 96.130128)"><g><path d="M 6.796875 -28.265625 L 4.46875 -28.265625 L 6.796875 -38.71875 L 23.515625 -38.71875 L 32.6875 0 L 21.125 0 L 19.796875 -6.671875 L 12.484375 -6.671875 L 11.09375 0 L -0.109375 0 Z M 18.6875 -15.328125 L 16.25 -26.125 L 13.75 -15.328125 Z M 18.6875 -15.328125 "/></g></g></g><g fill="#ffa857" fill-opacity="1"><g transform="translate(73.966135, 96.130128)"><g><path d="M 4.0625 -12.890625 C 5.5 -11.878906 7.007812 -11.09375 8.59375 -10.53125 C 10.175781 -9.96875 11.644531 -9.6875 13 -9.6875 C 13.769531 -9.6875 14.40625 -9.878906 14.90625 -10.265625 C 15.414062 -10.660156 15.671875 -11.1875 15.671875 -11.84375 C 15.671875 -12.1875 15.613281 -12.503906 15.5 -12.796875 C 15.382812 -13.085938 15.148438 -13.382812 14.796875 -13.6875 C 14.453125 -14 13.976562 -14.328125 13.375 -14.671875 C 12.78125 -15.023438 12 -15.4375 11.03125 -15.90625 C 9.207031 -16.757812 7.800781 -17.492188 6.8125 -18.109375 C 5.832031 -18.734375 4.972656 -19.390625 4.234375 -20.078125 C 3.234375 -20.972656 2.46875 -22.097656 1.9375 -23.453125 C 1.414062 -24.804688 1.15625 -26.253906 1.15625 -27.796875 C 1.15625 -29.460938 1.425781 -30.992188 1.96875 -32.390625 C 2.507812 -33.785156 3.273438 -34.992188 4.265625 -36.015625 C 5.253906 -37.046875 6.40625 -37.847656 7.71875 -38.421875 C 9.03125 -39.003906 10.484375 -39.296875 12.078125 -39.296875 C 12.890625 -39.296875 13.648438 -39.242188 14.359375 -39.140625 C 15.078125 -39.046875 16.019531 -38.863281 17.1875 -38.59375 L 17.59375 -40.28125 L 25.953125 -38.25 L 23.328125 -27.625 C 22.242188 -28.519531 21.046875 -29.207031 19.734375 -29.6875 C 18.421875 -30.175781 17.144531 -30.421875 15.90625 -30.421875 C 14.9375 -30.421875 14.148438 -30.234375 13.546875 -29.859375 C 12.953125 -29.492188 12.65625 -29.003906 12.65625 -28.390625 C 12.65625 -28.078125 12.722656 -27.785156 12.859375 -27.515625 C 12.992188 -27.242188 13.253906 -26.953125 13.640625 -26.640625 C 14.023438 -26.328125 14.546875 -25.976562 15.203125 -25.59375 C 15.859375 -25.207031 16.691406 -24.765625 17.703125 -24.265625 C 18.671875 -23.765625 19.492188 -23.328125 20.171875 -22.953125 C 20.847656 -22.585938 21.425781 -22.238281 21.90625 -21.90625 C 22.394531 -21.582031 22.8125 -21.265625 23.15625 -20.953125 C 23.507812 -20.640625 23.835938 -20.289062 24.140625 -19.90625 C 25.847656 -17.851562 26.703125 -15.320312 26.703125 -12.3125 C 26.703125 -10.414062 26.378906 -8.671875 25.734375 -7.078125 C 25.097656 -5.492188 24.21875 -4.140625 23.09375 -3.015625 C 21.976562 -1.890625 20.632812 -1.007812 19.0625 -0.375 C 17.5 0.257812 15.769531 0.578125 13.875 0.578125 C 11.78125 0.578125 9.742188 0.289062 7.765625 -0.28125 C 5.796875 -0.863281 3.75 -1.773438 1.625 -3.015625 Z M 4.0625 -12.890625 "/></g></g></g><g fill="#ffa857" fill-opacity="1"><g transform="translate(101.654849, 96.130128)"><g><path d="M 2.609375 -28.265625 L 0.296875 -28.265625 L 2.609375 -38.71875 L 13.0625 -38.71875 L 13.0625 -23.96875 L 18.984375 -38.71875 L 29.65625 -38.71875 L 21.59375 -19.90625 L 30.765625 0 L 19.453125 0 L 13.0625 -14.796875 L 13.0625 0 L 2.609375 0 Z M 2.609375 -28.265625 "/></g></g></g><path stroke-linecap="butt" transform="matrix(0.7496, 0, 0, 0.7496, 134.166544, 37.230556)" fill="none" stroke-linejoin="miter" d="M 3.253636 52.986481 L 0.377101 52.986481 L 3.253636 40.281788 L 15.958329 40.281788 L 15.958329 65.618219 L 18.662897 65.618219 L 15.958329 77.999824 L 3.253636 77.999824 Z M 5.42667 24.799571 L 18.037564 24.799571 L 15.332996 37.426098 L 2.628302 37.426098 Z M 22.451376 52.913526 L 18.423186 52.913526 L 21.221554 40.281788 L 22.451376 40.281788 L 22.451376 39.750254 L 22.529543 35.482353 C 22.576443 33.158196 22.899532 31.318673 23.493599 29.958573 C 24.098088 28.582839 25.093411 27.457239 26.479567 26.57656 C 26.948567 26.274316 27.438411 26.034605 27.954312 25.857427 C 28.470212 25.669827 29.074701 25.508282 29.767779 25.383216 C 30.47649 25.258149 31.289424 25.16956 32.20658 25.117449 C 33.139369 25.054915 34.249336 25.023649 35.536481 25.023649 L 40.888294 25.023649 L 37.938804 37.655387 L 37.558393 37.655387 L 36.557859 37.728342 C 35.572959 37.780454 35.10917 38.629865 35.15607 40.281788 L 40.810127 40.281788 L 37.938804 52.913526 L 35.15607 52.913526 L 35.15607 77.999824 L 22.451376 77.999824 Z M 44.37974 76.754368 C 46.698685 77.786168 48.621586 78.520935 50.143231 78.96388 C 51.670087 79.406824 53.176099 79.625691 54.661266 79.625691 C 56.730078 79.625691 58.173556 79.01078 58.991701 77.770535 C 59.825479 76.525079 60.242368 74.357256 60.242368 71.267066 L 60.242368 65.618219 L 58.084967 75.128501 L 52.509076 75.128501 C 51.159398 75.128501 49.867042 74.888789 48.632008 74.409367 C 47.396974 73.914311 46.339118 73.231656 45.453229 72.345766 C 44.572551 71.465088 43.947218 70.30301 43.58244 68.869954 C 43.233295 67.421265 43.056117 65.274286 43.056117 62.43944 L 43.056117 52.986481 L 40.179583 52.986481 L 43.056117 40.281788 L 55.682644 40.281788 L 55.682644 55.08656 C 55.682644 57.655639 55.7087 59.448262 55.760811 60.454006 C 55.807711 61.464962 55.937989 62.173674 56.136011 62.590563 C 56.605011 63.575463 57.662867 64.065308 59.31479 64.065308 C 59.413801 64.065308 59.554501 64.065308 59.731679 64.065308 C 59.919279 64.065308 60.091246 64.039252 60.242368 63.992352 L 60.242368 40.281788 L 72.947062 40.281788 L 72.947062 74.596967 C 72.947062 76.301001 72.905373 77.754902 72.832417 78.96388 C 72.75425 80.172858 72.597917 81.220292 72.358206 82.10097 C 72.134128 82.986859 71.837095 83.747682 71.472317 84.388649 C 71.117961 85.034827 70.659383 85.665371 70.091372 86.280283 C 68.689582 87.728972 66.870904 88.828517 64.624914 89.568495 C 62.384135 90.329317 59.809846 90.704518 56.912467 90.704518 C 54.692533 90.704518 52.232887 90.470017 49.523109 90.006228 C 46.81333 89.537228 44.296362 88.922317 41.977417 88.151072 Z M 44.37974 76.754368 " stroke="#975ab6" stroke-width="2.081278" stroke-opacity="1" stroke-miterlimit="4"/><path stroke-linecap="butt" transform="matrix(0.7496, 0, 0, 0.7496, 134.166544, 37.230556)" fill="none" stroke-linejoin="miter" d="M 86.647078 62.892807 C 88.814901 62.892807 90.513724 63.617152 91.748757 65.065841 C 92.999425 66.519742 93.624758 68.47912 93.624758 70.949188 C 93.624758 73.429678 92.962947 75.399479 91.639324 76.848168 C 90.326124 78.281224 88.585612 79.000358 86.417789 79.000358 C 84.249966 79.000358 82.519876 78.281224 81.217098 76.848168 C 79.935164 75.399479 79.288986 73.481789 79.288986 71.10031 C 79.288986 68.630243 79.96122 66.644809 81.295265 65.144008 C 82.644943 63.643208 84.427144 62.892807 86.647078 62.892807 Z M 86.647078 62.892807 " stroke="#975ab6" stroke-width="2.081278" stroke-opacity="1" stroke-miterlimit="4"/></svg>